<mxfile host="app.diagrams.net" modified="2023-01-23T08:39:09.072Z" agent="5.0 (X11; Linux x86_64) AppleWebKit/537.36 (KHTML, like Gecko) Chrome/108.0.0.0 Safari/537.36" etag="stRO4g8CttRFUSN_xf7C" version="20.8.10" type="github">
  <diagram id="C5RBs43oDa-KdzZeNtuy" name="Page-1">
    <mxGraphModel dx="1434" dy="779" grid="1" gridSize="10" guides="1" tooltips="1" connect="1" arrows="1" fold="1" page="1" pageScale="1" pageWidth="827" pageHeight="1169" background="#808080" math="0" shadow="0">
      <root>
        <mxCell id="WIyWlLk6GJQsqaUBKTNV-0" />
        <mxCell id="WIyWlLk6GJQsqaUBKTNV-1" parent="WIyWlLk6GJQsqaUBKTNV-0" />
        <mxCell id="WX14FEPXoOFvyEs8KOCt-0" value="&lt;p style=&quot;margin: 4px 0px 0px ; text-align: center&quot;&gt;&amp;lt;&amp;lt;&lt;span&gt;enumeration&lt;/span&gt;&amp;gt;&amp;gt;&lt;/p&gt;&lt;p style=&quot;margin: 0px ; margin-top: 4px ; text-align: center ; text-decoration: underline&quot;&gt;&lt;b&gt;ReservationStatus&lt;/b&gt;&lt;/p&gt;&lt;hr&gt;&lt;p style=&quot;margin: 0px ; margin-left: 8px&quot;&gt;Waiting&lt;/p&gt;&lt;p style=&quot;margin: 0px ; margin-left: 8px&quot;&gt;Pending&lt;/p&gt;&lt;p style=&quot;margin: 0px ; margin-left: 8px&quot;&gt;Confirmed&lt;br&gt;&lt;/p&gt;&lt;p style=&quot;margin: 0px ; margin-left: 8px&quot;&gt;&lt;span&gt;Completed&lt;/span&gt;&lt;br&gt;&lt;/p&gt;&lt;p style=&quot;margin: 0px ; margin-left: 8px&quot;&gt;&lt;span&gt;Cancelled&lt;/span&gt;&lt;br&gt;&lt;/p&gt;&lt;p style=&quot;margin: 0px ; margin-left: 8px&quot;&gt;None&lt;/p&gt;&lt;p style=&quot;margin: 0px ; margin-left: 8px&quot;&gt;&lt;br&gt;&lt;/p&gt;" style="verticalAlign=top;align=left;overflow=fill;fontSize=12;fontFamily=Helvetica;html=1;rounded=0;shadow=1;glass=0;comic=0;strokeWidth=1;labelBackgroundColor=none;" vertex="1" parent="WIyWlLk6GJQsqaUBKTNV-1">
          <mxGeometry x="790" y="182" width="110" height="147" as="geometry" />
        </mxCell>
        <mxCell id="WX14FEPXoOFvyEs8KOCt-1" value="CarRentalLocation" style="swimlane;fontStyle=1;align=center;verticalAlign=top;childLayout=stackLayout;horizontal=1;startSize=26;horizontalStack=0;resizeParent=1;resizeParentMax=0;resizeLast=0;collapsible=1;marginBottom=0;swimlaneFillColor=#ffffff;rounded=0;shadow=1;glass=0;comic=0;labelBackgroundColor=none;strokeWidth=1;fontSize=12;html=0;" vertex="1" parent="WIyWlLk6GJQsqaUBKTNV-1">
          <mxGeometry x="410" y="408" width="180" height="112" as="geometry" />
        </mxCell>
        <mxCell id="WX14FEPXoOFvyEs8KOCt-2" value="name: string" style="text;strokeColor=none;fillColor=none;align=left;verticalAlign=top;spacingLeft=4;spacingRight=4;overflow=hidden;rotatable=0;points=[[0,0.5],[1,0.5]];portConstraint=eastwest;labelBackgroundColor=none;" vertex="1" parent="WX14FEPXoOFvyEs8KOCt-1">
          <mxGeometry y="26" width="180" height="26" as="geometry" />
        </mxCell>
        <mxCell id="WX14FEPXoOFvyEs8KOCt-3" value="address: Location" style="text;strokeColor=none;fillColor=none;align=left;verticalAlign=top;spacingLeft=4;spacingRight=4;overflow=hidden;rotatable=0;points=[[0,0.5],[1,0.5]];portConstraint=eastwest;labelBackgroundColor=none;" vertex="1" parent="WX14FEPXoOFvyEs8KOCt-1">
          <mxGeometry y="52" width="180" height="26" as="geometry" />
        </mxCell>
        <mxCell id="WX14FEPXoOFvyEs8KOCt-4" value="" style="line;strokeWidth=1;fillColor=none;align=left;verticalAlign=middle;spacingTop=-1;spacingLeft=3;spacingRight=3;rotatable=0;labelPosition=right;points=[];portConstraint=eastwest;labelBackgroundColor=none;" vertex="1" parent="WX14FEPXoOFvyEs8KOCt-1">
          <mxGeometry y="78" width="180" height="8" as="geometry" />
        </mxCell>
        <mxCell id="WX14FEPXoOFvyEs8KOCt-5" value="getLocation(): Address" style="text;strokeColor=none;fillColor=none;align=left;verticalAlign=top;spacingLeft=4;spacingRight=4;overflow=hidden;rotatable=0;points=[[0,0.5],[1,0.5]];portConstraint=eastwest;labelBackgroundColor=none;" vertex="1" parent="WX14FEPXoOFvyEs8KOCt-1">
          <mxGeometry y="86" width="180" height="26" as="geometry" />
        </mxCell>
        <mxCell id="WX14FEPXoOFvyEs8KOCt-6" value="Vehicle" style="swimlane;fontStyle=3;align=center;verticalAlign=top;childLayout=stackLayout;horizontal=1;startSize=26;horizontalStack=0;resizeParent=1;resizeParentMax=0;resizeLast=0;collapsible=1;marginBottom=0;swimlaneFillColor=#ffffff;rounded=0;shadow=1;glass=0;comic=0;labelBackgroundColor=none;strokeWidth=1;fontSize=12;html=0;" vertex="1" parent="WIyWlLk6GJQsqaUBKTNV-1">
          <mxGeometry x="410" y="571" width="180" height="320" as="geometry" />
        </mxCell>
        <mxCell id="WX14FEPXoOFvyEs8KOCt-7" value="licenseNumber: string" style="text;strokeColor=none;fillColor=none;align=left;verticalAlign=top;spacingLeft=4;spacingRight=4;overflow=hidden;rotatable=0;points=[[0,0.5],[1,0.5]];portConstraint=eastwest;shadow=1;labelBackgroundColor=none;" vertex="1" parent="WX14FEPXoOFvyEs8KOCt-6">
          <mxGeometry y="26" width="180" height="26" as="geometry" />
        </mxCell>
        <mxCell id="WX14FEPXoOFvyEs8KOCt-8" value="stockNumber: string" style="text;strokeColor=none;fillColor=none;align=left;verticalAlign=top;spacingLeft=4;spacingRight=4;overflow=hidden;rotatable=0;points=[[0,0.5],[1,0.5]];portConstraint=eastwest;labelBackgroundColor=none;" vertex="1" parent="WX14FEPXoOFvyEs8KOCt-6">
          <mxGeometry y="52" width="180" height="26" as="geometry" />
        </mxCell>
        <mxCell id="WX14FEPXoOFvyEs8KOCt-9" value="passengerCapacity: int" style="text;strokeColor=none;fillColor=none;align=left;verticalAlign=top;spacingLeft=4;spacingRight=4;overflow=hidden;rotatable=0;points=[[0,0.5],[1,0.5]];portConstraint=eastwest;labelBackgroundColor=none;" vertex="1" parent="WX14FEPXoOFvyEs8KOCt-6">
          <mxGeometry y="78" width="180" height="26" as="geometry" />
        </mxCell>
        <mxCell id="WX14FEPXoOFvyEs8KOCt-10" value="uniquecode: string" style="text;strokeColor=none;fillColor=none;align=left;verticalAlign=top;spacingLeft=4;spacingRight=4;overflow=hidden;rotatable=0;points=[[0,0.5],[1,0.5]];portConstraint=eastwest;labelBackgroundColor=none;" vertex="1" parent="WX14FEPXoOFvyEs8KOCt-6">
          <mxGeometry y="104" width="180" height="26" as="geometry" />
        </mxCell>
        <mxCell id="WX14FEPXoOFvyEs8KOCt-12" value="status: VehicleStatus" style="text;strokeColor=none;fillColor=none;align=left;verticalAlign=top;spacingLeft=4;spacingRight=4;overflow=hidden;rotatable=0;points=[[0,0.5],[1,0.5]];portConstraint=eastwest;labelBackgroundColor=none;" vertex="1" parent="WX14FEPXoOFvyEs8KOCt-6">
          <mxGeometry y="130" width="180" height="26" as="geometry" />
        </mxCell>
        <mxCell id="WX14FEPXoOFvyEs8KOCt-13" value="model: string" style="text;strokeColor=none;fillColor=none;align=left;verticalAlign=top;spacingLeft=4;spacingRight=4;overflow=hidden;rotatable=0;points=[[0,0.5],[1,0.5]];portConstraint=eastwest;labelBackgroundColor=none;" vertex="1" parent="WX14FEPXoOFvyEs8KOCt-6">
          <mxGeometry y="156" width="180" height="26" as="geometry" />
        </mxCell>
        <mxCell id="WX14FEPXoOFvyEs8KOCt-14" value="make: string" style="text;strokeColor=none;fillColor=none;align=left;verticalAlign=top;spacingLeft=4;spacingRight=4;overflow=hidden;rotatable=0;points=[[0,0.5],[1,0.5]];portConstraint=eastwest;labelBackgroundColor=none;" vertex="1" parent="WX14FEPXoOFvyEs8KOCt-6">
          <mxGeometry y="182" width="180" height="26" as="geometry" />
        </mxCell>
        <mxCell id="WX14FEPXoOFvyEs8KOCt-15" value="manufecturingYear: int" style="text;strokeColor=none;fillColor=none;align=left;verticalAlign=top;spacingLeft=4;spacingRight=4;overflow=hidden;rotatable=0;points=[[0,0.5],[1,0.5]];portConstraint=eastwest;labelBackgroundColor=none;" vertex="1" parent="WX14FEPXoOFvyEs8KOCt-6">
          <mxGeometry y="208" width="180" height="26" as="geometry" />
        </mxCell>
        <mxCell id="WX14FEPXoOFvyEs8KOCt-16" value="mileage: int" style="text;strokeColor=none;fillColor=none;align=left;verticalAlign=top;spacingLeft=4;spacingRight=4;overflow=hidden;rotatable=0;points=[[0,0.5],[1,0.5]];portConstraint=eastwest;labelBackgroundColor=none;" vertex="1" parent="WX14FEPXoOFvyEs8KOCt-6">
          <mxGeometry y="234" width="180" height="26" as="geometry" />
        </mxCell>
        <mxCell id="WX14FEPXoOFvyEs8KOCt-17" value="" style="line;strokeWidth=1;fillColor=none;align=left;verticalAlign=middle;spacingTop=-1;spacingLeft=3;spacingRight=3;rotatable=0;labelPosition=right;points=[];portConstraint=eastwest;labelBackgroundColor=none;" vertex="1" parent="WX14FEPXoOFvyEs8KOCt-6">
          <mxGeometry y="260" width="180" height="8" as="geometry" />
        </mxCell>
        <mxCell id="WX14FEPXoOFvyEs8KOCt-18" value="reserveVehicle(): bool" style="text;strokeColor=none;fillColor=none;align=left;verticalAlign=top;spacingLeft=4;spacingRight=4;overflow=hidden;rotatable=0;points=[[0,0.5],[1,0.5]];portConstraint=eastwest;labelBackgroundColor=none;" vertex="1" parent="WX14FEPXoOFvyEs8KOCt-6">
          <mxGeometry y="268" width="180" height="26" as="geometry" />
        </mxCell>
        <mxCell id="WX14FEPXoOFvyEs8KOCt-19" value="returnVehicle(): bool" style="text;strokeColor=none;fillColor=none;align=left;verticalAlign=top;spacingLeft=4;spacingRight=4;overflow=hidden;rotatable=0;points=[[0,0.5],[1,0.5]];portConstraint=eastwest;labelBackgroundColor=none;" vertex="1" parent="WX14FEPXoOFvyEs8KOCt-6">
          <mxGeometry y="294" width="180" height="26" as="geometry" />
        </mxCell>
        <mxCell id="WX14FEPXoOFvyEs8KOCt-20" value="&lt;p style=&quot;margin: 4px 0px 0px ; text-align: center&quot;&gt;&amp;lt;&amp;lt;&lt;span&gt;enumeration&lt;/span&gt;&amp;gt;&amp;gt;&lt;/p&gt;&lt;p style=&quot;margin: 0px ; margin-top: 4px ; text-align: center ; text-decoration: underline&quot;&gt;&lt;b&gt;AccountStatus&lt;/b&gt;&lt;/p&gt;&lt;hr&gt;&lt;p style=&quot;margin: 0px ; margin-left: 8px&quot;&gt;Active&lt;/p&gt;&lt;p style=&quot;margin: 0px ; margin-left: 8px&quot;&gt;&lt;span&gt;Closed&lt;/span&gt;&lt;br&gt;&lt;/p&gt;&lt;p style=&quot;margin: 0px ; margin-left: 8px&quot;&gt;Canceled&lt;/p&gt;&lt;p style=&quot;margin: 0px ; margin-left: 8px&quot;&gt;Blacklisted&lt;/p&gt;&lt;p style=&quot;margin: 0px ; margin-left: 8px&quot;&gt;&lt;span&gt;None&lt;/span&gt;&lt;br&gt;&lt;/p&gt;&lt;p style=&quot;margin: 0px ; margin-left: 8px&quot;&gt;&lt;br&gt;&lt;/p&gt;" style="verticalAlign=top;align=left;overflow=fill;fontSize=12;fontFamily=Helvetica;html=1;rounded=0;shadow=1;glass=0;comic=0;strokeWidth=1;labelBackgroundColor=none;" vertex="1" parent="WIyWlLk6GJQsqaUBKTNV-1">
          <mxGeometry x="920" y="182" width="109" height="140" as="geometry" />
        </mxCell>
        <mxCell id="WX14FEPXoOFvyEs8KOCt-21" value="&lt;p style=&quot;margin: 4px 0px 0px ; text-align: center&quot;&gt;&amp;lt;&amp;lt;dataType&amp;gt;&amp;gt;&lt;/p&gt;&lt;p style=&quot;margin: 0px ; margin-top: 4px ; text-align: center ; text-decoration: underline&quot;&gt;&lt;b&gt;Location&lt;/b&gt;&lt;/p&gt;&lt;hr&gt;&lt;p style=&quot;margin: 0px ; margin-left: 8px&quot;&gt;streetAddress: string&lt;br&gt;&lt;/p&gt;&lt;p style=&quot;margin: 0px ; margin-left: 8px&quot;&gt;city: string&lt;br&gt;&lt;/p&gt;&lt;p style=&quot;margin: 0px ; margin-left: 8px&quot;&gt;state: string&lt;br&gt;&lt;/p&gt;&lt;p style=&quot;margin: 0px ; margin-left: 8px&quot;&gt;&lt;span&gt;zipcode: string&lt;/span&gt;&lt;br&gt;&lt;/p&gt;&lt;p style=&quot;margin: 0px ; margin-left: 8px&quot;&gt;country: string&lt;span&gt;&lt;br&gt;&lt;/span&gt;&lt;/p&gt;" style="verticalAlign=top;align=left;overflow=fill;fontSize=12;fontFamily=Helvetica;html=1;rounded=0;shadow=1;glass=0;comic=0;strokeWidth=1;labelBackgroundColor=none;" vertex="1" parent="WIyWlLk6GJQsqaUBKTNV-1">
          <mxGeometry x="1043.5" y="182" width="136" height="140" as="geometry" />
        </mxCell>
        <mxCell id="WX14FEPXoOFvyEs8KOCt-22" value="Account" style="swimlane;fontStyle=3;align=center;verticalAlign=top;childLayout=stackLayout;horizontal=1;startSize=26;horizontalStack=0;resizeParent=1;resizeParentMax=0;resizeLast=0;collapsible=1;marginBottom=0;swimlaneFillColor=#ffffff;rounded=0;shadow=1;glass=0;comic=0;labelBackgroundColor=none;strokeWidth=1;fontSize=12;html=0;" vertex="1" parent="WIyWlLk6GJQsqaUBKTNV-1">
          <mxGeometry x="685" y="605" width="180" height="164" as="geometry" />
        </mxCell>
        <mxCell id="WX14FEPXoOFvyEs8KOCt-23" value="id: int" style="text;strokeColor=none;fillColor=none;align=left;verticalAlign=top;spacingLeft=4;spacingRight=4;overflow=hidden;rotatable=0;points=[[0,0.5],[1,0.5]];portConstraint=eastwest;labelBackgroundColor=none;" vertex="1" parent="WX14FEPXoOFvyEs8KOCt-22">
          <mxGeometry y="26" width="180" height="26" as="geometry" />
        </mxCell>
        <mxCell id="WX14FEPXoOFvyEs8KOCt-24" value="password: string" style="text;strokeColor=none;fillColor=none;align=left;verticalAlign=top;spacingLeft=4;spacingRight=4;overflow=hidden;rotatable=0;points=[[0,0.5],[1,0.5]];portConstraint=eastwest;labelBackgroundColor=none;" vertex="1" parent="WX14FEPXoOFvyEs8KOCt-22">
          <mxGeometry y="52" width="180" height="26" as="geometry" />
        </mxCell>
        <mxCell id="WX14FEPXoOFvyEs8KOCt-25" value="status: AccountStatus" style="text;strokeColor=none;fillColor=none;align=left;verticalAlign=top;spacingLeft=4;spacingRight=4;overflow=hidden;rotatable=0;points=[[0,0.5],[1,0.5]];portConstraint=eastwest;labelBackgroundColor=none;" vertex="1" parent="WX14FEPXoOFvyEs8KOCt-22">
          <mxGeometry y="78" width="180" height="26" as="geometry" />
        </mxCell>
        <mxCell id="WX14FEPXoOFvyEs8KOCt-26" value="user: User" style="text;strokeColor=none;fillColor=none;align=left;verticalAlign=top;spacingLeft=4;spacingRight=4;overflow=hidden;rotatable=0;points=[[0,0.5],[1,0.5]];portConstraint=eastwest;labelBackgroundColor=none;" vertex="1" parent="WX14FEPXoOFvyEs8KOCt-22">
          <mxGeometry y="104" width="180" height="26" as="geometry" />
        </mxCell>
        <mxCell id="WX14FEPXoOFvyEs8KOCt-27" value="" style="line;strokeWidth=1;fillColor=none;align=left;verticalAlign=middle;spacingTop=-1;spacingLeft=3;spacingRight=3;rotatable=0;labelPosition=right;points=[];portConstraint=eastwest;labelBackgroundColor=none;" vertex="1" parent="WX14FEPXoOFvyEs8KOCt-22">
          <mxGeometry y="130" width="180" height="8" as="geometry" />
        </mxCell>
        <mxCell id="WX14FEPXoOFvyEs8KOCt-28" value="resetPassword(): bool" style="text;strokeColor=none;fillColor=none;align=left;verticalAlign=top;spacingLeft=4;spacingRight=4;overflow=hidden;rotatable=0;points=[[0,0.5],[1,0.5]];portConstraint=eastwest;labelBackgroundColor=none;" vertex="1" parent="WX14FEPXoOFvyEs8KOCt-22">
          <mxGeometry y="138" width="180" height="26" as="geometry" />
        </mxCell>
        <mxCell id="WX14FEPXoOFvyEs8KOCt-29" style="edgeStyle=none;rounded=0;html=1;entryX=1;entryY=0.5;startFill=0;endArrow=classic;endFill=1;jettySize=auto;orthogonalLoop=1;strokeWidth=1;fontSize=12;endSize=10;exitX=0.913;exitY=0.029;exitPerimeter=0;labelBackgroundColor=none;fontColor=default;" edge="1" parent="WIyWlLk6GJQsqaUBKTNV-1" source="WX14FEPXoOFvyEs8KOCt-31" target="WX14FEPXoOFvyEs8KOCt-18">
          <mxGeometry relative="1" as="geometry">
            <Array as="points">
              <mxPoint x="620" y="1088" />
              <mxPoint x="620" y="878" />
            </Array>
            <mxPoint x="620" y="1098" as="sourcePoint" />
          </mxGeometry>
        </mxCell>
        <mxCell id="WX14FEPXoOFvyEs8KOCt-30" value="records" style="text;html=1;resizable=0;points=[];align=center;verticalAlign=middle;labelBackgroundColor=none;fontSize=12;rotation=0;" vertex="1" connectable="0" parent="WX14FEPXoOFvyEs8KOCt-29">
          <mxGeometry x="-0.0469" y="-1" relative="1" as="geometry">
            <mxPoint x="-1" y="-28" as="offset" />
          </mxGeometry>
        </mxCell>
        <mxCell id="WX14FEPXoOFvyEs8KOCt-31" value="VehicleInventory" style="swimlane;fontStyle=1;align=center;verticalAlign=top;childLayout=stackLayout;horizontal=1;startSize=26;horizontalStack=0;resizeParent=1;resizeParentMax=0;resizeLast=0;collapsible=1;marginBottom=0;swimlaneFillColor=#ffffff;rounded=0;shadow=1;glass=0;comic=0;labelBackgroundColor=none;strokeWidth=1;fontSize=12;html=0;" vertex="1" parent="WIyWlLk6GJQsqaUBKTNV-1">
          <mxGeometry x="410" y="1101" width="230" height="104" as="geometry" />
        </mxCell>
        <mxCell id="WX14FEPXoOFvyEs8KOCt-32" value="vehicleTypeIndex: list&lt;string, Vehicle&gt;" style="text;strokeColor=none;fillColor=none;align=left;verticalAlign=top;spacingLeft=4;spacingRight=4;overflow=hidden;rotatable=0;points=[[0,0.5],[1,0.5]];portConstraint=eastwest;labelBackgroundColor=none;" vertex="1" parent="WX14FEPXoOFvyEs8KOCt-31">
          <mxGeometry y="26" width="230" height="26" as="geometry" />
        </mxCell>
        <mxCell id="WX14FEPXoOFvyEs8KOCt-33" value="vehicleModelIndex: list&lt;string, Vehicle&gt;" style="text;strokeColor=none;fillColor=none;align=left;verticalAlign=top;spacingLeft=4;spacingRight=4;overflow=hidden;rotatable=0;points=[[0,0.5],[1,0.5]];portConstraint=eastwest;labelBackgroundColor=none;" vertex="1" parent="WX14FEPXoOFvyEs8KOCt-31">
          <mxGeometry y="52" width="230" height="26" as="geometry" />
        </mxCell>
        <mxCell id="WX14FEPXoOFvyEs8KOCt-34" value="creationDate: date" style="text;strokeColor=none;fillColor=none;align=left;verticalAlign=top;spacingLeft=4;spacingRight=4;overflow=hidden;rotatable=0;points=[[0,0.5],[1,0.5]];portConstraint=eastwest;labelBackgroundColor=none;" vertex="1" parent="WX14FEPXoOFvyEs8KOCt-31">
          <mxGeometry y="78" width="230" height="26" as="geometry" />
        </mxCell>
        <mxCell id="WX14FEPXoOFvyEs8KOCt-35" value="Receptionist " style="swimlane;fontStyle=1;align=center;verticalAlign=top;childLayout=stackLayout;horizontal=1;startSize=26;horizontalStack=0;resizeParent=1;resizeParentMax=0;resizeLast=0;collapsible=1;marginBottom=0;swimlaneFillColor=#ffffff;rounded=0;shadow=1;glass=0;comic=0;labelBackgroundColor=none;strokeWidth=1;fontSize=12;html=0;" vertex="1" parent="WIyWlLk6GJQsqaUBKTNV-1">
          <mxGeometry x="969" y="557" width="180" height="86" as="geometry" />
        </mxCell>
        <mxCell id="WX14FEPXoOFvyEs8KOCt-36" value="dateJoined: date" style="text;strokeColor=none;fillColor=none;align=left;verticalAlign=top;spacingLeft=4;spacingRight=4;overflow=hidden;rotatable=0;points=[[0,0.5],[1,0.5]];portConstraint=eastwest;labelBackgroundColor=none;" vertex="1" parent="WX14FEPXoOFvyEs8KOCt-35">
          <mxGeometry y="26" width="180" height="26" as="geometry" />
        </mxCell>
        <mxCell id="WX14FEPXoOFvyEs8KOCt-37" value="" style="line;strokeWidth=1;fillColor=none;align=left;verticalAlign=middle;spacingTop=-1;spacingLeft=3;spacingRight=3;rotatable=0;labelPosition=right;points=[];portConstraint=eastwest;labelBackgroundColor=none;" vertex="1" parent="WX14FEPXoOFvyEs8KOCt-35">
          <mxGeometry y="52" width="180" height="8" as="geometry" />
        </mxCell>
        <mxCell id="WX14FEPXoOFvyEs8KOCt-38" value="searchMember(): bool" style="text;strokeColor=none;fillColor=none;align=left;verticalAlign=top;spacingLeft=4;spacingRight=4;overflow=hidden;rotatable=0;points=[[0,0.5],[1,0.5]];portConstraint=eastwest;labelBackgroundColor=none;" vertex="1" parent="WX14FEPXoOFvyEs8KOCt-35">
          <mxGeometry y="60" width="180" height="26" as="geometry" />
        </mxCell>
        <mxCell id="WX14FEPXoOFvyEs8KOCt-39" style="edgeStyle=none;rounded=0;html=1;exitX=0.5;exitY=0;startArrow=none;startFill=0;endArrow=none;endFill=0;jettySize=auto;orthogonalLoop=1;strokeWidth=1;fontSize=12;entryX=0.844;entryY=1.077;startSize=10;entryPerimeter=0;labelBackgroundColor=none;fontColor=default;" edge="1" parent="WIyWlLk6GJQsqaUBKTNV-1" source="WX14FEPXoOFvyEs8KOCt-40" target="WX14FEPXoOFvyEs8KOCt-28">
          <mxGeometry relative="1" as="geometry">
            <mxPoint x="1038" y="778" as="targetPoint" />
            <Array as="points">
              <mxPoint x="1035" y="798" />
              <mxPoint x="837" y="798" />
            </Array>
          </mxGeometry>
        </mxCell>
        <mxCell id="WX14FEPXoOFvyEs8KOCt-40" value="VehicleReservation" style="swimlane;fontStyle=1;align=center;verticalAlign=top;childLayout=stackLayout;horizontal=1;startSize=26;horizontalStack=0;resizeParent=1;resizeParentMax=0;resizeLast=0;collapsible=1;marginBottom=0;swimlaneFillColor=#ffffff;rounded=0;shadow=1;glass=0;comic=0;labelBackgroundColor=none;strokeWidth=1;fontSize=12;html=0;" vertex="1" parent="WIyWlLk6GJQsqaUBKTNV-1">
          <mxGeometry x="940" y="916" width="190" height="242" as="geometry" />
        </mxCell>
        <mxCell id="WX14FEPXoOFvyEs8KOCt-41" value="reservationNumber: sring" style="text;strokeColor=none;fillColor=none;align=left;verticalAlign=top;spacingLeft=4;spacingRight=4;overflow=hidden;rotatable=0;points=[[0,0.5],[1,0.5]];portConstraint=eastwest;labelBackgroundColor=none;" vertex="1" parent="WX14FEPXoOFvyEs8KOCt-40">
          <mxGeometry y="26" width="190" height="26" as="geometry" />
        </mxCell>
        <mxCell id="WX14FEPXoOFvyEs8KOCt-42" value="creationDate: date" style="text;strokeColor=none;fillColor=none;align=left;verticalAlign=top;spacingLeft=4;spacingRight=4;overflow=hidden;rotatable=0;points=[[0,0.5],[1,0.5]];portConstraint=eastwest;labelBackgroundColor=none;" vertex="1" parent="WX14FEPXoOFvyEs8KOCt-40">
          <mxGeometry y="52" width="190" height="26" as="geometry" />
        </mxCell>
        <mxCell id="WX14FEPXoOFvyEs8KOCt-43" value="status: ReservationStatus" style="text;strokeColor=none;fillColor=none;align=left;verticalAlign=top;spacingLeft=4;spacingRight=4;overflow=hidden;rotatable=0;points=[[0,0.5],[1,0.5]];portConstraint=eastwest;labelBackgroundColor=none;" vertex="1" parent="WX14FEPXoOFvyEs8KOCt-40">
          <mxGeometry y="78" width="190" height="26" as="geometry" />
        </mxCell>
        <mxCell id="WX14FEPXoOFvyEs8KOCt-44" value="dueDate: timestamp" style="text;strokeColor=none;fillColor=none;align=left;verticalAlign=top;spacingLeft=4;spacingRight=4;overflow=hidden;rotatable=0;points=[[0,0.5],[1,0.5]];portConstraint=eastwest;labelBackgroundColor=none;" vertex="1" parent="WX14FEPXoOFvyEs8KOCt-40">
          <mxGeometry y="104" width="190" height="26" as="geometry" />
        </mxCell>
        <mxCell id="WX14FEPXoOFvyEs8KOCt-45" value="returnDate: timestamp" style="text;strokeColor=none;fillColor=none;align=left;verticalAlign=top;spacingLeft=4;spacingRight=4;overflow=hidden;rotatable=0;points=[[0,0.5],[1,0.5]];portConstraint=eastwest;labelBackgroundColor=none;" vertex="1" parent="WX14FEPXoOFvyEs8KOCt-40">
          <mxGeometry y="130" width="190" height="26" as="geometry" />
        </mxCell>
        <mxCell id="WX14FEPXoOFvyEs8KOCt-46" value="pickupLocationName: string" style="text;strokeColor=none;fillColor=none;align=left;verticalAlign=top;spacingLeft=4;spacingRight=4;overflow=hidden;rotatable=0;points=[[0,0.5],[1,0.5]];portConstraint=eastwest;labelBackgroundColor=none;" vertex="1" parent="WX14FEPXoOFvyEs8KOCt-40">
          <mxGeometry y="156" width="190" height="26" as="geometry" />
        </mxCell>
        <mxCell id="WX14FEPXoOFvyEs8KOCt-47" value="returnLocationName: string" style="text;strokeColor=none;fillColor=none;align=left;verticalAlign=top;spacingLeft=4;spacingRight=4;overflow=hidden;rotatable=0;points=[[0,0.5],[1,0.5]];portConstraint=eastwest;labelBackgroundColor=none;" vertex="1" parent="WX14FEPXoOFvyEs8KOCt-40">
          <mxGeometry y="182" width="190" height="26" as="geometry" />
        </mxCell>
        <mxCell id="WX14FEPXoOFvyEs8KOCt-48" value="" style="line;strokeWidth=1;fillColor=none;align=left;verticalAlign=middle;spacingTop=-1;spacingLeft=3;spacingRight=3;rotatable=0;labelPosition=right;points=[];portConstraint=eastwest;labelBackgroundColor=none;" vertex="1" parent="WX14FEPXoOFvyEs8KOCt-40">
          <mxGeometry y="208" width="190" height="8" as="geometry" />
        </mxCell>
        <mxCell id="WX14FEPXoOFvyEs8KOCt-49" value="fetchDetails(): VehicleReservation" style="text;strokeColor=none;fillColor=none;align=left;verticalAlign=top;spacingLeft=4;spacingRight=4;overflow=hidden;rotatable=0;points=[[0,0.5],[1,0.5]];portConstraint=eastwest;labelBackgroundColor=none;" vertex="1" parent="WX14FEPXoOFvyEs8KOCt-40">
          <mxGeometry y="216" width="190" height="26" as="geometry" />
        </mxCell>
        <mxCell id="WX14FEPXoOFvyEs8KOCt-50" value="Bill" style="swimlane;fontStyle=1;align=center;verticalAlign=top;childLayout=stackLayout;horizontal=1;startSize=26;horizontalStack=0;resizeParent=1;resizeParentMax=0;resizeLast=0;collapsible=1;marginBottom=0;swimlaneFillColor=#ffffff;rounded=0;shadow=1;glass=0;comic=0;labelBackgroundColor=none;strokeWidth=1;fontSize=12;html=0;" vertex="1" parent="WIyWlLk6GJQsqaUBKTNV-1">
          <mxGeometry x="1179" y="1008" width="151" height="86" as="geometry" />
        </mxCell>
        <mxCell id="WX14FEPXoOFvyEs8KOCt-51" value="totalAmount: double" style="text;strokeColor=none;fillColor=none;align=left;verticalAlign=top;spacingLeft=4;spacingRight=4;overflow=hidden;rotatable=0;points=[[0,0.5],[1,0.5]];portConstraint=eastwest;shadow=1;labelBackgroundColor=none;" vertex="1" parent="WX14FEPXoOFvyEs8KOCt-50">
          <mxGeometry y="26" width="151" height="26" as="geometry" />
        </mxCell>
        <mxCell id="WX14FEPXoOFvyEs8KOCt-52" value="" style="line;strokeWidth=1;fillColor=none;align=left;verticalAlign=middle;spacingTop=-1;spacingLeft=3;spacingRight=3;rotatable=0;labelPosition=right;points=[];portConstraint=eastwest;labelBackgroundColor=none;" vertex="1" parent="WX14FEPXoOFvyEs8KOCt-50">
          <mxGeometry y="52" width="151" height="8" as="geometry" />
        </mxCell>
        <mxCell id="WX14FEPXoOFvyEs8KOCt-53" value="addBillItem(): bool" style="text;strokeColor=none;fillColor=none;align=left;verticalAlign=top;spacingLeft=4;spacingRight=4;overflow=hidden;rotatable=0;points=[[0,0.5],[1,0.5]];portConstraint=eastwest;labelBackgroundColor=none;" vertex="1" parent="WX14FEPXoOFvyEs8KOCt-50">
          <mxGeometry y="60" width="151" height="26" as="geometry" />
        </mxCell>
        <mxCell id="WX14FEPXoOFvyEs8KOCt-54" value="Notification" style="swimlane;fontStyle=3;align=center;verticalAlign=top;childLayout=stackLayout;horizontal=1;startSize=26;horizontalStack=0;resizeParent=1;resizeParentMax=0;resizeLast=0;collapsible=1;marginBottom=0;swimlaneFillColor=#ffffff;rounded=0;shadow=1;glass=0;comic=0;labelBackgroundColor=none;strokeWidth=1;fontSize=12;html=0;" vertex="1" parent="WIyWlLk6GJQsqaUBKTNV-1">
          <mxGeometry x="953" y="1250" width="147" height="138" as="geometry" />
        </mxCell>
        <mxCell id="WX14FEPXoOFvyEs8KOCt-55" value="notificationId: int" style="text;strokeColor=none;fillColor=none;align=left;verticalAlign=top;spacingLeft=4;spacingRight=4;overflow=hidden;rotatable=0;points=[[0,0.5],[1,0.5]];portConstraint=eastwest;labelBackgroundColor=none;" vertex="1" parent="WX14FEPXoOFvyEs8KOCt-54">
          <mxGeometry y="26" width="147" height="26" as="geometry" />
        </mxCell>
        <mxCell id="WX14FEPXoOFvyEs8KOCt-56" value="createdOn: date" style="text;strokeColor=none;fillColor=none;align=left;verticalAlign=top;spacingLeft=4;spacingRight=4;overflow=hidden;rotatable=0;points=[[0,0.5],[1,0.5]];portConstraint=eastwest;labelBackgroundColor=none;" vertex="1" parent="WX14FEPXoOFvyEs8KOCt-54">
          <mxGeometry y="52" width="147" height="26" as="geometry" />
        </mxCell>
        <mxCell id="WX14FEPXoOFvyEs8KOCt-57" value="content: string" style="text;strokeColor=none;fillColor=none;align=left;verticalAlign=top;spacingLeft=4;spacingRight=4;overflow=hidden;rotatable=0;points=[[0,0.5],[1,0.5]];portConstraint=eastwest;labelBackgroundColor=none;" vertex="1" parent="WX14FEPXoOFvyEs8KOCt-54">
          <mxGeometry y="78" width="147" height="26" as="geometry" />
        </mxCell>
        <mxCell id="WX14FEPXoOFvyEs8KOCt-58" value="" style="line;strokeWidth=1;fillColor=none;align=left;verticalAlign=middle;spacingTop=-1;spacingLeft=3;spacingRight=3;rotatable=0;labelPosition=right;points=[];portConstraint=eastwest;labelBackgroundColor=none;" vertex="1" parent="WX14FEPXoOFvyEs8KOCt-54">
          <mxGeometry y="104" width="147" height="8" as="geometry" />
        </mxCell>
        <mxCell id="WX14FEPXoOFvyEs8KOCt-59" value="sendNotification(): bool" style="text;strokeColor=none;fillColor=none;align=left;verticalAlign=top;spacingLeft=4;spacingRight=4;overflow=hidden;rotatable=0;points=[[0,0.5],[1,0.5]];portConstraint=eastwest;labelBackgroundColor=none;" vertex="1" parent="WX14FEPXoOFvyEs8KOCt-54">
          <mxGeometry y="112" width="147" height="26" as="geometry" />
        </mxCell>
        <mxCell id="WX14FEPXoOFvyEs8KOCt-60" value="Payment" style="swimlane;fontStyle=3;align=center;verticalAlign=top;childLayout=stackLayout;horizontal=1;startSize=26;horizontalStack=0;resizeParent=1;resizeParentMax=0;resizeLast=0;collapsible=1;marginBottom=0;swimlaneFillColor=#ffffff;rounded=0;shadow=1;glass=0;comic=0;labelBackgroundColor=none;strokeWidth=1;fontSize=12;html=0;" vertex="1" parent="WIyWlLk6GJQsqaUBKTNV-1">
          <mxGeometry x="1188" y="1177" width="152" height="138" as="geometry" />
        </mxCell>
        <mxCell id="WX14FEPXoOFvyEs8KOCt-61" value="creationDate: date" style="text;strokeColor=none;fillColor=none;align=left;verticalAlign=top;spacingLeft=4;spacingRight=4;overflow=hidden;rotatable=0;points=[[0,0.5],[1,0.5]];portConstraint=eastwest;shadow=1;labelBackgroundColor=none;" vertex="1" parent="WX14FEPXoOFvyEs8KOCt-60">
          <mxGeometry y="26" width="152" height="26" as="geometry" />
        </mxCell>
        <mxCell id="WX14FEPXoOFvyEs8KOCt-62" value="amount: double" style="text;strokeColor=none;fillColor=none;align=left;verticalAlign=top;spacingLeft=4;spacingRight=4;overflow=hidden;rotatable=0;points=[[0,0.5],[1,0.5]];portConstraint=eastwest;labelBackgroundColor=none;" vertex="1" parent="WX14FEPXoOFvyEs8KOCt-60">
          <mxGeometry y="52" width="152" height="26" as="geometry" />
        </mxCell>
        <mxCell id="WX14FEPXoOFvyEs8KOCt-63" value="status: PaymentStatus" style="text;strokeColor=none;fillColor=none;align=left;verticalAlign=top;spacingLeft=4;spacingRight=4;overflow=hidden;rotatable=0;points=[[0,0.5],[1,0.5]];portConstraint=eastwest;labelBackgroundColor=none;" vertex="1" parent="WX14FEPXoOFvyEs8KOCt-60">
          <mxGeometry y="78" width="152" height="26" as="geometry" />
        </mxCell>
        <mxCell id="WX14FEPXoOFvyEs8KOCt-64" value="" style="line;strokeWidth=1;fillColor=none;align=left;verticalAlign=middle;spacingTop=-1;spacingLeft=3;spacingRight=3;rotatable=0;labelPosition=right;points=[];portConstraint=eastwest;labelBackgroundColor=none;" vertex="1" parent="WX14FEPXoOFvyEs8KOCt-60">
          <mxGeometry y="104" width="152" height="8" as="geometry" />
        </mxCell>
        <mxCell id="WX14FEPXoOFvyEs8KOCt-65" value="initiateTransaction(): bool" style="text;strokeColor=none;fillColor=none;align=left;verticalAlign=top;spacingLeft=4;spacingRight=4;overflow=hidden;rotatable=0;points=[[0,0.5],[1,0.5]];portConstraint=eastwest;labelBackgroundColor=none;" vertex="1" parent="WX14FEPXoOFvyEs8KOCt-60">
          <mxGeometry y="112" width="152" height="26" as="geometry" />
        </mxCell>
        <mxCell id="WX14FEPXoOFvyEs8KOCt-66" value="Member" style="swimlane;fontStyle=1;align=center;verticalAlign=top;childLayout=stackLayout;horizontal=1;startSize=26;horizontalStack=0;resizeParent=1;resizeParentMax=0;resizeLast=0;collapsible=1;marginBottom=0;swimlaneFillColor=#ffffff;rounded=0;shadow=1;glass=0;comic=0;labelBackgroundColor=none;strokeWidth=1;fontSize=12;html=0;" vertex="1" parent="WIyWlLk6GJQsqaUBKTNV-1">
          <mxGeometry x="969" y="655" width="242" height="112" as="geometry" />
        </mxCell>
        <mxCell id="WX14FEPXoOFvyEs8KOCt-67" value="driverLicenseNumber: string" style="text;strokeColor=none;fillColor=none;align=left;verticalAlign=top;spacingLeft=4;spacingRight=4;overflow=hidden;rotatable=0;points=[[0,0.5],[1,0.5]];portConstraint=eastwest;labelBackgroundColor=none;" vertex="1" parent="WX14FEPXoOFvyEs8KOCt-66">
          <mxGeometry y="26" width="242" height="26" as="geometry" />
        </mxCell>
        <mxCell id="WX14FEPXoOFvyEs8KOCt-68" value="driverLicenseExpiry: date" style="text;strokeColor=none;fillColor=none;align=left;verticalAlign=top;spacingLeft=4;spacingRight=4;overflow=hidden;rotatable=0;points=[[0,0.5],[1,0.5]];portConstraint=eastwest;labelBackgroundColor=none;" vertex="1" parent="WX14FEPXoOFvyEs8KOCt-66">
          <mxGeometry y="52" width="242" height="26" as="geometry" />
        </mxCell>
        <mxCell id="WX14FEPXoOFvyEs8KOCt-69" value="" style="line;strokeWidth=1;fillColor=none;align=left;verticalAlign=middle;spacingTop=-1;spacingLeft=3;spacingRight=3;rotatable=0;labelPosition=right;points=[];portConstraint=eastwest;labelBackgroundColor=none;" vertex="1" parent="WX14FEPXoOFvyEs8KOCt-66">
          <mxGeometry y="78" width="242" height="8" as="geometry" />
        </mxCell>
        <mxCell id="WX14FEPXoOFvyEs8KOCt-70" value="getReservations(): list&lt;VehicleReservation&gt;" style="text;strokeColor=none;fillColor=none;align=left;verticalAlign=top;spacingLeft=4;spacingRight=4;overflow=hidden;rotatable=0;points=[[0,0.5],[1,0.5]];portConstraint=eastwest;labelBackgroundColor=none;" vertex="1" parent="WX14FEPXoOFvyEs8KOCt-66">
          <mxGeometry y="86" width="242" height="26" as="geometry" />
        </mxCell>
        <mxCell id="WX14FEPXoOFvyEs8KOCt-71" value="EmailNotification" style="swimlane;fontStyle=1;align=center;verticalAlign=top;childLayout=stackLayout;horizontal=1;startSize=26;horizontalStack=0;resizeParent=1;resizeParentMax=0;resizeLast=0;collapsible=1;marginBottom=0;swimlaneFillColor=#ffffff;rounded=0;shadow=1;glass=0;comic=0;labelBackgroundColor=none;strokeWidth=1;fontSize=12;html=0;" vertex="1" parent="WIyWlLk6GJQsqaUBKTNV-1">
          <mxGeometry x="952" y="1481.5" width="145" height="52" as="geometry" />
        </mxCell>
        <mxCell id="WX14FEPXoOFvyEs8KOCt-72" value="email: string" style="text;strokeColor=none;fillColor=none;align=left;verticalAlign=top;spacingLeft=4;spacingRight=4;overflow=hidden;rotatable=0;points=[[0,0.5],[1,0.5]];portConstraint=eastwest;labelBackgroundColor=none;" vertex="1" parent="WX14FEPXoOFvyEs8KOCt-71">
          <mxGeometry y="26" width="145" height="26" as="geometry" />
        </mxCell>
        <mxCell id="WX14FEPXoOFvyEs8KOCt-73" value="SMSNotification" style="swimlane;fontStyle=1;align=center;verticalAlign=top;childLayout=stackLayout;horizontal=1;startSize=26;horizontalStack=0;resizeParent=1;resizeParentMax=0;resizeLast=0;collapsible=1;marginBottom=0;swimlaneFillColor=#ffffff;rounded=0;shadow=1;glass=0;comic=0;labelBackgroundColor=none;strokeWidth=1;fontSize=12;html=0;" vertex="1" parent="WIyWlLk6GJQsqaUBKTNV-1">
          <mxGeometry x="951" y="1408" width="145" height="52" as="geometry" />
        </mxCell>
        <mxCell id="WX14FEPXoOFvyEs8KOCt-74" value="phone : phone" style="text;strokeColor=none;fillColor=none;align=left;verticalAlign=top;spacingLeft=4;spacingRight=4;overflow=hidden;rotatable=0;points=[[0,0.5],[1,0.5]];portConstraint=eastwest;labelBackgroundColor=none;" vertex="1" parent="WX14FEPXoOFvyEs8KOCt-73">
          <mxGeometry y="26" width="145" height="26" as="geometry" />
        </mxCell>
        <mxCell id="WX14FEPXoOFvyEs8KOCt-75" value="CreditCardTransaction" style="swimlane;fontStyle=1;align=center;verticalAlign=top;childLayout=stackLayout;horizontal=1;startSize=26;horizontalStack=0;resizeParent=1;resizeParentMax=0;resizeLast=0;collapsible=1;marginBottom=0;swimlaneFillColor=#ffffff;rounded=0;shadow=1;glass=0;comic=0;labelBackgroundColor=none;strokeWidth=1;fontSize=12;html=0;" vertex="1" parent="WIyWlLk6GJQsqaUBKTNV-1">
          <mxGeometry x="1188" y="1328" width="152" height="52" as="geometry" />
        </mxCell>
        <mxCell id="WX14FEPXoOFvyEs8KOCt-76" value="nameOnCard: string" style="text;strokeColor=none;fillColor=none;align=left;verticalAlign=top;spacingLeft=4;spacingRight=4;overflow=hidden;rotatable=0;points=[[0,0.5],[1,0.5]];portConstraint=eastwest;labelBackgroundColor=none;" vertex="1" parent="WX14FEPXoOFvyEs8KOCt-75">
          <mxGeometry y="26" width="152" height="26" as="geometry" />
        </mxCell>
        <mxCell id="WX14FEPXoOFvyEs8KOCt-77" value="CheckTransaction" style="swimlane;fontStyle=1;align=center;verticalAlign=top;childLayout=stackLayout;horizontal=1;startSize=26;horizontalStack=0;resizeParent=1;resizeParentMax=0;resizeLast=0;collapsible=1;marginBottom=0;swimlaneFillColor=#ffffff;rounded=0;shadow=1;glass=0;comic=0;labelBackgroundColor=none;strokeWidth=1;fontSize=12;html=0;" vertex="1" parent="WIyWlLk6GJQsqaUBKTNV-1">
          <mxGeometry x="1188" y="1391" width="152" height="78" as="geometry" />
        </mxCell>
        <mxCell id="WX14FEPXoOFvyEs8KOCt-78" value="bankName: string" style="text;strokeColor=none;fillColor=none;align=left;verticalAlign=top;spacingLeft=4;spacingRight=4;overflow=hidden;rotatable=0;points=[[0,0.5],[1,0.5]];portConstraint=eastwest;labelBackgroundColor=none;" vertex="1" parent="WX14FEPXoOFvyEs8KOCt-77">
          <mxGeometry y="26" width="152" height="26" as="geometry" />
        </mxCell>
        <mxCell id="WX14FEPXoOFvyEs8KOCt-79" value="checkNumber: string" style="text;strokeColor=none;fillColor=none;align=left;verticalAlign=top;spacingLeft=4;spacingRight=4;overflow=hidden;rotatable=0;points=[[0,0.5],[1,0.5]];portConstraint=eastwest;labelBackgroundColor=none;" vertex="1" parent="WX14FEPXoOFvyEs8KOCt-77">
          <mxGeometry y="52" width="152" height="26" as="geometry" />
        </mxCell>
        <mxCell id="WX14FEPXoOFvyEs8KOCt-80" style="edgeStyle=none;rounded=0;html=1;exitX=0;exitY=0.5;startArrow=none;startFill=0;endArrow=none;endFill=0;jettySize=auto;orthogonalLoop=1;strokeWidth=1;fontSize=20;labelBackgroundColor=none;fontColor=default;" edge="1" parent="WIyWlLk6GJQsqaUBKTNV-1" source="WX14FEPXoOFvyEs8KOCt-81">
          <mxGeometry relative="1" as="geometry">
            <mxPoint x="1148" y="1410" as="targetPoint" />
            <Array as="points">
              <mxPoint x="1148" y="1506" />
            </Array>
          </mxGeometry>
        </mxCell>
        <mxCell id="WX14FEPXoOFvyEs8KOCt-81" value="CashTransaction" style="swimlane;fontStyle=1;align=center;verticalAlign=top;childLayout=stackLayout;horizontal=1;startSize=26;horizontalStack=0;resizeParent=1;resizeParentMax=0;resizeLast=0;collapsible=1;marginBottom=0;swimlaneFillColor=#ffffff;rounded=0;shadow=1;glass=0;comic=0;labelBackgroundColor=none;strokeWidth=1;fontSize=12;html=0;" vertex="1" parent="WIyWlLk6GJQsqaUBKTNV-1">
          <mxGeometry x="1188" y="1480" width="152" height="52" as="geometry" />
        </mxCell>
        <mxCell id="WX14FEPXoOFvyEs8KOCt-82" value="cashTendered: double" style="text;strokeColor=none;fillColor=none;align=left;verticalAlign=top;spacingLeft=4;spacingRight=4;overflow=hidden;rotatable=0;points=[[0,0.5],[1,0.5]];portConstraint=eastwest;labelBackgroundColor=none;" vertex="1" parent="WX14FEPXoOFvyEs8KOCt-81">
          <mxGeometry y="26" width="152" height="26" as="geometry" />
        </mxCell>
        <mxCell id="WX14FEPXoOFvyEs8KOCt-83" value="&lt;p style=&quot;margin: 4px 0px 0px ; text-align: center&quot;&gt;&amp;lt;&amp;lt;&lt;span&gt;enumeration&lt;/span&gt;&amp;gt;&amp;gt;&lt;/p&gt;&lt;p style=&quot;margin: 0px ; margin-top: 4px ; text-align: center ; text-decoration: underline&quot;&gt;&lt;b&gt;VehicleStatus&lt;/b&gt;&lt;/p&gt;&lt;hr&gt;&lt;p style=&quot;margin: 0px ; margin-left: 8px&quot;&gt;Available&lt;/p&gt;&lt;p style=&quot;margin: 0px ; margin-left: 8px&quot;&gt;&lt;span&gt;Reserved&lt;/span&gt;&lt;/p&gt;&lt;p style=&quot;margin: 0px ; margin-left: 8px&quot;&gt;&lt;span&gt;Loaned&lt;/span&gt;&lt;/p&gt;&lt;p style=&quot;margin: 0px ; margin-left: 8px&quot;&gt;&lt;span&gt;Lost&lt;/span&gt;&lt;/p&gt;&lt;p style=&quot;margin: 0px ; margin-left: 8px&quot;&gt;&lt;span&gt;BeingServiced&lt;/span&gt;&lt;/p&gt;&lt;p style=&quot;margin: 0px ; margin-left: 8px&quot;&gt;&lt;span&gt;Other&lt;br&gt;&lt;/span&gt;&lt;/p&gt;&lt;p&gt;&lt;br&gt;&lt;/p&gt;" style="verticalAlign=top;align=left;overflow=fill;fontSize=12;fontFamily=Helvetica;html=1;rounded=0;shadow=1;glass=0;comic=0;strokeWidth=1;labelBackgroundColor=none;" vertex="1" parent="WIyWlLk6GJQsqaUBKTNV-1">
          <mxGeometry x="641" y="180" width="111" height="147" as="geometry" />
        </mxCell>
        <mxCell id="WX14FEPXoOFvyEs8KOCt-84" value="&lt;p style=&quot;margin: 4px 0px 0px ; text-align: center&quot;&gt;&amp;lt;&amp;lt;&lt;span&gt;enumeration&lt;/span&gt;&amp;gt;&amp;gt;&lt;/p&gt;&lt;p style=&quot;margin: 0px ; margin-top: 4px ; text-align: center ; text-decoration: underline&quot;&gt;&lt;b&gt;CarType&lt;/b&gt;&lt;/p&gt;&lt;hr&gt;&lt;p style=&quot;margin: 0px ; margin-left: 8px&quot;&gt;Economy&lt;/p&gt;&lt;p style=&quot;margin: 0px ; margin-left: 8px&quot;&gt;&lt;span&gt;Compact&lt;/span&gt;&lt;br&gt;&lt;/p&gt;&lt;p style=&quot;margin: 0px ; margin-left: 8px&quot;&gt;&lt;span&gt;Intermediate&lt;/span&gt;&lt;/p&gt;&lt;p style=&quot;margin: 0px ; margin-left: 8px&quot;&gt;&lt;span&gt;Standard&lt;/span&gt;&lt;/p&gt;&lt;p style=&quot;margin: 0px ; margin-left: 8px&quot;&gt;&lt;span&gt;FullSize&lt;/span&gt;&lt;/p&gt;&lt;p style=&quot;margin: 0px ; margin-left: 8px&quot;&gt;Premium&lt;br&gt;&lt;/p&gt;&lt;p style=&quot;margin: 0px ; margin-left: 8px&quot;&gt;Luxury&lt;/p&gt;&lt;p style=&quot;margin: 0px ; margin-left: 8px&quot;&gt;&lt;span&gt;&lt;br&gt;&lt;/span&gt;&lt;/p&gt;" style="verticalAlign=top;align=left;overflow=fill;fontSize=12;fontFamily=Helvetica;html=1;rounded=0;shadow=1;glass=0;comic=0;strokeWidth=1;labelBackgroundColor=none;" vertex="1" parent="WIyWlLk6GJQsqaUBKTNV-1">
          <mxGeometry x="509.5" y="182" width="104" height="160" as="geometry" />
        </mxCell>
        <mxCell id="WX14FEPXoOFvyEs8KOCt-85" style="edgeStyle=none;rounded=0;html=1;exitX=0;exitY=0.5;startArrow=none;startFill=0;endArrow=classic;endFill=1;jettySize=auto;orthogonalLoop=1;strokeWidth=1;fontSize=12;entryX=1;entryY=0.5;endSize=10;labelBackgroundColor=none;fontColor=default;" edge="1" parent="WIyWlLk6GJQsqaUBKTNV-1" source="WX14FEPXoOFvyEs8KOCt-89" target="WX14FEPXoOFvyEs8KOCt-100">
          <mxGeometry relative="1" as="geometry">
            <mxPoint x="-55" y="800" as="targetPoint" />
          </mxGeometry>
        </mxCell>
        <mxCell id="WX14FEPXoOFvyEs8KOCt-86" value="reads" style="text;html=1;resizable=0;points=[];align=center;verticalAlign=middle;labelBackgroundColor=none;fontSize=12;" vertex="1" connectable="0" parent="WX14FEPXoOFvyEs8KOCt-85">
          <mxGeometry x="-0.0406" y="-1" relative="1" as="geometry">
            <mxPoint x="1" y="-9" as="offset" />
          </mxGeometry>
        </mxCell>
        <mxCell id="WX14FEPXoOFvyEs8KOCt-87" value="UniquecodeReader" style="swimlane;fontStyle=1;align=center;verticalAlign=top;childLayout=stackLayout;horizontal=1;startSize=26;horizontalStack=0;resizeParent=1;resizeParentMax=0;resizeLast=0;collapsible=1;marginBottom=0;swimlaneFillColor=#ffffff;rounded=0;shadow=1;glass=0;comic=0;labelBackgroundColor=none;strokeWidth=1;fontSize=12;html=0;" vertex="1" parent="WIyWlLk6GJQsqaUBKTNV-1">
          <mxGeometry x="969" y="408" width="180" height="138" as="geometry" />
        </mxCell>
        <mxCell id="WX14FEPXoOFvyEs8KOCt-88" value="id: string" style="text;strokeColor=none;fillColor=none;align=left;verticalAlign=top;spacingLeft=4;spacingRight=4;overflow=hidden;rotatable=0;points=[[0,0.5],[1,0.5]];portConstraint=eastwest;labelBackgroundColor=none;" vertex="1" parent="WX14FEPXoOFvyEs8KOCt-87">
          <mxGeometry y="26" width="180" height="26" as="geometry" />
        </mxCell>
        <mxCell id="WX14FEPXoOFvyEs8KOCt-89" value="registeredAt: date" style="text;strokeColor=none;fillColor=none;align=left;verticalAlign=top;spacingLeft=4;spacingRight=4;overflow=hidden;rotatable=0;points=[[0,0.5],[1,0.5]];portConstraint=eastwest;shadow=1;labelBackgroundColor=none;" vertex="1" parent="WX14FEPXoOFvyEs8KOCt-87">
          <mxGeometry y="52" width="180" height="26" as="geometry" />
        </mxCell>
        <mxCell id="WX14FEPXoOFvyEs8KOCt-90" value="active: bool" style="text;strokeColor=none;fillColor=none;align=left;verticalAlign=top;spacingLeft=4;spacingRight=4;overflow=hidden;rotatable=0;points=[[0,0.5],[1,0.5]];portConstraint=eastwest;labelBackgroundColor=none;" vertex="1" parent="WX14FEPXoOFvyEs8KOCt-87">
          <mxGeometry y="78" width="180" height="26" as="geometry" />
        </mxCell>
        <mxCell id="WX14FEPXoOFvyEs8KOCt-91" value="" style="line;strokeWidth=1;fillColor=none;align=left;verticalAlign=middle;spacingTop=-1;spacingLeft=3;spacingRight=3;rotatable=0;labelPosition=right;points=[];portConstraint=eastwest;labelBackgroundColor=none;" vertex="1" parent="WX14FEPXoOFvyEs8KOCt-87">
          <mxGeometry y="104" width="180" height="8" as="geometry" />
        </mxCell>
        <mxCell id="WX14FEPXoOFvyEs8KOCt-92" value="isActive(): bool" style="text;strokeColor=none;fillColor=none;align=left;verticalAlign=top;spacingLeft=4;spacingRight=4;overflow=hidden;rotatable=0;points=[[0,0.5],[1,0.5]];portConstraint=eastwest;labelBackgroundColor=none;" vertex="1" parent="WX14FEPXoOFvyEs8KOCt-87">
          <mxGeometry y="112" width="180" height="26" as="geometry" />
        </mxCell>
        <mxCell id="WX14FEPXoOFvyEs8KOCt-93" value="" style="rounded=0;html=1;startArrow=classic;startFill=1;endArrow=none;endFill=0;jettySize=auto;orthogonalLoop=1;strokeWidth=1;fontSize=20;startSize=10;labelBackgroundColor=none;fontColor=default;" edge="1" parent="WIyWlLk6GJQsqaUBKTNV-1" source="WX14FEPXoOFvyEs8KOCt-95" target="WX14FEPXoOFvyEs8KOCt-19">
          <mxGeometry relative="1" as="geometry">
            <mxPoint x="497" y="923" as="targetPoint" />
          </mxGeometry>
        </mxCell>
        <mxCell id="WX14FEPXoOFvyEs8KOCt-94" value="placed at" style="text;html=1;resizable=0;points=[];align=center;verticalAlign=middle;labelBackgroundColor=none;fontSize=12;" vertex="1" connectable="0" parent="WX14FEPXoOFvyEs8KOCt-93">
          <mxGeometry x="-0.0849" relative="1" as="geometry">
            <mxPoint y="-1" as="offset" />
          </mxGeometry>
        </mxCell>
        <mxCell id="WX14FEPXoOFvyEs8KOCt-95" value="ParkingStall" style="swimlane;fontStyle=1;align=center;verticalAlign=top;childLayout=stackLayout;horizontal=1;startSize=26;horizontalStack=0;resizeParent=1;resizeParentMax=0;resizeLast=0;collapsible=1;marginBottom=0;swimlaneFillColor=#ffffff;rounded=0;shadow=1;glass=0;comic=0;labelBackgroundColor=none;strokeWidth=1;fontSize=12;html=0;" vertex="1" parent="WIyWlLk6GJQsqaUBKTNV-1">
          <mxGeometry x="410" y="994" width="180" height="78" as="geometry" />
        </mxCell>
        <mxCell id="WX14FEPXoOFvyEs8KOCt-96" value="stallNumber: string" style="text;strokeColor=none;fillColor=none;align=left;verticalAlign=top;spacingLeft=4;spacingRight=4;overflow=hidden;rotatable=0;points=[[0,0.5],[1,0.5]];portConstraint=eastwest;labelBackgroundColor=none;" vertex="1" parent="WX14FEPXoOFvyEs8KOCt-95">
          <mxGeometry y="26" width="180" height="26" as="geometry" />
        </mxCell>
        <mxCell id="WX14FEPXoOFvyEs8KOCt-97" value="locationIdentifier: string" style="text;strokeColor=none;fillColor=none;align=left;verticalAlign=top;spacingLeft=4;spacingRight=4;overflow=hidden;rotatable=0;points=[[0,0.5],[1,0.5]];portConstraint=eastwest;labelBackgroundColor=none;" vertex="1" parent="WX14FEPXoOFvyEs8KOCt-95">
          <mxGeometry y="52" width="180" height="26" as="geometry" />
        </mxCell>
        <mxCell id="WX14FEPXoOFvyEs8KOCt-98" value="UniqueCode" style="swimlane;fontStyle=1;align=center;verticalAlign=top;childLayout=stackLayout;horizontal=1;startSize=26;horizontalStack=0;resizeParent=1;resizeParentMax=0;resizeLast=0;collapsible=1;marginBottom=0;swimlaneFillColor=#ffffff;rounded=0;shadow=1;glass=0;comic=0;labelBackgroundColor=none;strokeWidth=1;fontSize=12;html=0;" vertex="1" parent="WIyWlLk6GJQsqaUBKTNV-1">
          <mxGeometry x="685" y="408" width="180" height="138" as="geometry" />
        </mxCell>
        <mxCell id="WX14FEPXoOFvyEs8KOCt-99" value="unique code: string" style="text;strokeColor=none;fillColor=none;align=left;verticalAlign=top;spacingLeft=4;spacingRight=4;overflow=hidden;rotatable=0;points=[[0,0.5],[1,0.5]];portConstraint=eastwest;labelBackgroundColor=none;" vertex="1" parent="WX14FEPXoOFvyEs8KOCt-98">
          <mxGeometry y="26" width="180" height="26" as="geometry" />
        </mxCell>
        <mxCell id="WX14FEPXoOFvyEs8KOCt-100" value="issuedAt: date" style="text;strokeColor=none;fillColor=none;align=left;verticalAlign=top;spacingLeft=4;spacingRight=4;overflow=hidden;rotatable=0;points=[[0,0.5],[1,0.5]];portConstraint=eastwest;labelBackgroundColor=none;" vertex="1" parent="WX14FEPXoOFvyEs8KOCt-98">
          <mxGeometry y="52" width="180" height="26" as="geometry" />
        </mxCell>
        <mxCell id="WX14FEPXoOFvyEs8KOCt-101" value="active: bool" style="text;strokeColor=none;fillColor=none;align=left;verticalAlign=top;spacingLeft=4;spacingRight=4;overflow=hidden;rotatable=0;points=[[0,0.5],[1,0.5]];portConstraint=eastwest;labelBackgroundColor=none;" vertex="1" parent="WX14FEPXoOFvyEs8KOCt-98">
          <mxGeometry y="78" width="180" height="26" as="geometry" />
        </mxCell>
        <mxCell id="WX14FEPXoOFvyEs8KOCt-102" value="" style="line;strokeWidth=1;fillColor=none;align=left;verticalAlign=middle;spacingTop=-1;spacingLeft=3;spacingRight=3;rotatable=0;labelPosition=right;points=[];portConstraint=eastwest;labelBackgroundColor=none;" vertex="1" parent="WX14FEPXoOFvyEs8KOCt-98">
          <mxGeometry y="104" width="180" height="8" as="geometry" />
        </mxCell>
        <mxCell id="WX14FEPXoOFvyEs8KOCt-103" value="isActive(): bool" style="text;strokeColor=none;fillColor=none;align=left;verticalAlign=top;spacingLeft=4;spacingRight=4;overflow=hidden;rotatable=0;points=[[0,0.5],[1,0.5]];portConstraint=eastwest;labelBackgroundColor=none;" vertex="1" parent="WX14FEPXoOFvyEs8KOCt-98">
          <mxGeometry y="112" width="180" height="26" as="geometry" />
        </mxCell>
        <mxCell id="WX14FEPXoOFvyEs8KOCt-104" value="" style="endArrow=none;html=1;endSize=12;startArrow=diamondThin;startSize=14;startFill=0;align=left;verticalAlign=bottom;shadow=0;strokeWidth=1;fontSize=10;fontColor=default;endFill=0;entryX=0.5;entryY=0;labelBackgroundColor=none;" edge="1" parent="WIyWlLk6GJQsqaUBKTNV-1" target="WX14FEPXoOFvyEs8KOCt-6">
          <mxGeometry x="-0.831" y="-12" relative="1" as="geometry">
            <mxPoint x="500" y="520" as="sourcePoint" />
            <mxPoint x="1070" y="574.5" as="targetPoint" />
            <mxPoint as="offset" />
          </mxGeometry>
        </mxCell>
        <mxCell id="WX14FEPXoOFvyEs8KOCt-105" style="edgeStyle=none;rounded=0;html=1;exitX=0;exitY=0.192;startArrow=none;startFill=0;endArrow=classic;endFill=1;jettySize=auto;orthogonalLoop=1;strokeWidth=1;fontSize=20;exitPerimeter=0;entryX=1;entryY=0.5;endSize=10;labelBackgroundColor=none;fontColor=default;" edge="1" parent="WIyWlLk6GJQsqaUBKTNV-1" source="WX14FEPXoOFvyEs8KOCt-26">
          <mxGeometry relative="1" as="geometry">
            <mxPoint x="590" y="714" as="targetPoint" />
          </mxGeometry>
        </mxCell>
        <mxCell id="WX14FEPXoOFvyEs8KOCt-106" value="reserves" style="text;html=1;resizable=0;points=[];align=center;verticalAlign=middle;labelBackgroundColor=none;fontSize=12;rotation=0;" vertex="1" connectable="0" parent="WX14FEPXoOFvyEs8KOCt-105">
          <mxGeometry x="0.0293" y="2" relative="1" as="geometry">
            <mxPoint x="4" y="-4" as="offset" />
          </mxGeometry>
        </mxCell>
        <mxCell id="WX14FEPXoOFvyEs8KOCt-107" value="Extends" style="endArrow=block;endSize=16;endFill=0;html=1;shadow=0;strokeWidth=1;fontSize=12;fontColor=default;entryX=1;entryY=0.5;rounded=0;labelBackgroundColor=none;" edge="1" parent="WIyWlLk6GJQsqaUBKTNV-1">
          <mxGeometry width="160" relative="1" as="geometry">
            <mxPoint x="970" y="717" as="sourcePoint" />
            <mxPoint x="865" y="717" as="targetPoint" />
          </mxGeometry>
        </mxCell>
        <mxCell id="WX14FEPXoOFvyEs8KOCt-108" value="Extends" style="endArrow=block;endSize=16;endFill=0;html=1;shadow=0;strokeWidth=1;fontSize=12;fontColor=default;entryX=1;entryY=0.5;exitX=0;exitY=0.5;rounded=0;labelBackgroundColor=none;" edge="1" parent="WIyWlLk6GJQsqaUBKTNV-1" source="WX14FEPXoOFvyEs8KOCt-36">
          <mxGeometry width="160" relative="1" as="geometry">
            <mxPoint x="1362.5" y="691" as="sourcePoint" />
            <mxPoint x="865" y="670" as="targetPoint" />
          </mxGeometry>
        </mxCell>
        <mxCell id="WX14FEPXoOFvyEs8KOCt-109" value="Extends" style="endArrow=block;endSize=16;endFill=0;html=1;shadow=0;strokeWidth=1;fontSize=12;fontColor=default;entryX=0;entryY=0.5;rounded=0;exitX=0;exitY=0.5;labelBackgroundColor=none;" edge="1" parent="WIyWlLk6GJQsqaUBKTNV-1" source="WX14FEPXoOFvyEs8KOCt-75" target="WX14FEPXoOFvyEs8KOCt-61">
          <mxGeometry width="160" relative="1" as="geometry">
            <mxPoint x="1158" y="1391" as="sourcePoint" />
            <mxPoint x="1710.1587301587301" y="1520" as="targetPoint" />
            <Array as="points">
              <mxPoint x="1148" y="1354" />
              <mxPoint x="1148" y="1218" />
            </Array>
          </mxGeometry>
        </mxCell>
        <mxCell id="WX14FEPXoOFvyEs8KOCt-110" value="" style="endArrow=block;endSize=16;endFill=0;html=1;shadow=0;strokeWidth=1;fontSize=12;fontColor=default;exitX=1;exitY=0.5;entryX=0.5;entryY=1;dashed=1;labelBackgroundColor=none;" edge="1" parent="WIyWlLk6GJQsqaUBKTNV-1" source="WX14FEPXoOFvyEs8KOCt-33" target="WX14FEPXoOFvyEs8KOCt-235">
          <mxGeometry width="160" relative="1" as="geometry">
            <mxPoint x="598.5" y="1436" as="sourcePoint" />
            <mxPoint x="775" y="996" as="targetPoint" />
          </mxGeometry>
        </mxCell>
        <mxCell id="WX14FEPXoOFvyEs8KOCt-111" value="" style="endArrow=none;html=1;shadow=0;strokeWidth=1;fontSize=15;fontColor=default;startArrow=diamondThin;startFill=1;endSize=14;startSize=14;entryX=0.456;entryY=0.004;entryPerimeter=0;labelBackgroundColor=none;" edge="1" parent="WIyWlLk6GJQsqaUBKTNV-1" source="WX14FEPXoOFvyEs8KOCt-53" target="WX14FEPXoOFvyEs8KOCt-60">
          <mxGeometry relative="1" as="geometry">
            <mxPoint x="1645" y="1527" as="sourcePoint" />
            <mxPoint x="1467" y="1433.5" as="targetPoint" />
          </mxGeometry>
        </mxCell>
        <mxCell id="WX14FEPXoOFvyEs8KOCt-112" value="" style="resizable=0;html=1;align=left;verticalAlign=bottom;labelBackgroundColor=none;fontSize=10;" vertex="1" connectable="0" parent="WX14FEPXoOFvyEs8KOCt-111">
          <mxGeometry x="-1" relative="1" as="geometry">
            <mxPoint x="-14" y="-15" as="offset" />
          </mxGeometry>
        </mxCell>
        <mxCell id="WX14FEPXoOFvyEs8KOCt-113" value="" style="endArrow=none;html=1;shadow=0;strokeWidth=1;fontSize=15;fontColor=default;startArrow=none;startFill=0;endSize=14;startSize=14;entryX=0;entryY=0.5;exitX=1;exitY=0.5;labelBackgroundColor=none;" edge="1" parent="WIyWlLk6GJQsqaUBKTNV-1" source="WX14FEPXoOFvyEs8KOCt-43" target="WX14FEPXoOFvyEs8KOCt-51">
          <mxGeometry relative="1" as="geometry">
            <mxPoint x="1160" y="983" as="sourcePoint" />
            <mxPoint x="1492" y="1485.5" as="targetPoint" />
          </mxGeometry>
        </mxCell>
        <mxCell id="WX14FEPXoOFvyEs8KOCt-114" value="" style="resizable=0;html=1;align=left;verticalAlign=bottom;labelBackgroundColor=none;fontSize=10;" vertex="1" connectable="0" parent="WX14FEPXoOFvyEs8KOCt-113">
          <mxGeometry x="-1" relative="1" as="geometry">
            <mxPoint x="-14" y="-15" as="offset" />
          </mxGeometry>
        </mxCell>
        <mxCell id="WX14FEPXoOFvyEs8KOCt-115" style="edgeStyle=none;rounded=0;html=1;entryX=1;entryY=0.5;startArrow=none;startFill=0;endArrow=classic;endFill=1;jettySize=auto;orthogonalLoop=1;strokeWidth=1;fontSize=12;exitX=0;exitY=0.5;endSize=10;labelBackgroundColor=none;fontColor=default;" edge="1" parent="WIyWlLk6GJQsqaUBKTNV-1" source="WX14FEPXoOFvyEs8KOCt-43" target="WX14FEPXoOFvyEs8KOCt-15">
          <mxGeometry relative="1" as="geometry">
            <mxPoint x="948" y="1088" as="sourcePoint" />
            <Array as="points">
              <mxPoint x="890" y="1007" />
              <mxPoint x="890" y="818" />
            </Array>
            <mxPoint x="830" y="806" as="targetPoint" />
          </mxGeometry>
        </mxCell>
        <mxCell id="WX14FEPXoOFvyEs8KOCt-116" value="against" style="text;html=1;resizable=0;points=[];align=center;verticalAlign=middle;labelBackgroundColor=none;fontSize=12;" vertex="1" connectable="0" parent="WX14FEPXoOFvyEs8KOCt-115">
          <mxGeometry x="0.27" relative="1" as="geometry">
            <mxPoint x="100" y="63" as="offset" />
          </mxGeometry>
        </mxCell>
        <mxCell id="WX14FEPXoOFvyEs8KOCt-117" style="edgeStyle=none;rounded=0;html=1;entryX=0.5;entryY=0;startArrow=none;startFill=0;endArrow=none;endFill=0;jettySize=auto;orthogonalLoop=1;strokeWidth=1;fontSize=12;dashed=1;labelBackgroundColor=none;fontColor=default;" edge="1" parent="WIyWlLk6GJQsqaUBKTNV-1" source="WX14FEPXoOFvyEs8KOCt-28" target="WX14FEPXoOFvyEs8KOCt-235">
          <mxGeometry relative="1" as="geometry">
            <mxPoint x="775" y="948" as="targetPoint" />
          </mxGeometry>
        </mxCell>
        <mxCell id="WX14FEPXoOFvyEs8KOCt-118" value="&lt;font style=&quot;font-size: 12px&quot;&gt;&lt;span&gt;&amp;lt;&amp;lt;uses&amp;gt;&amp;gt;&lt;/span&gt;&lt;/font&gt;" style="text;html=1;resizable=0;points=[];align=center;verticalAlign=middle;labelBackgroundColor=none;fontSize=12;rotation=0;fontStyle=1;" vertex="1" connectable="0" parent="WX14FEPXoOFvyEs8KOCt-117">
          <mxGeometry x="0.0352" y="4" relative="1" as="geometry">
            <mxPoint x="-4" y="16" as="offset" />
          </mxGeometry>
        </mxCell>
        <mxCell id="WX14FEPXoOFvyEs8KOCt-119" value="Extends" style="endArrow=block;endSize=16;endFill=0;html=1;shadow=0;strokeWidth=1;fontSize=12;fontColor=default;exitX=0;exitY=-0.038;exitPerimeter=0;rounded=0;labelBackgroundColor=none;" edge="1" parent="WIyWlLk6GJQsqaUBKTNV-1" source="WX14FEPXoOFvyEs8KOCt-74" target="WX14FEPXoOFvyEs8KOCt-55">
          <mxGeometry x="-0.3115" width="160" relative="1" as="geometry">
            <mxPoint x="1157" y="1733" as="sourcePoint" />
            <mxPoint x="1324" y="1646" as="targetPoint" />
            <Array as="points">
              <mxPoint x="920" y="1433" />
              <mxPoint x="920" y="1289" />
            </Array>
            <mxPoint as="offset" />
          </mxGeometry>
        </mxCell>
        <mxCell id="WX14FEPXoOFvyEs8KOCt-120" style="edgeStyle=none;rounded=0;html=1;exitX=0;exitY=0.058;startArrow=none;startFill=0;endArrow=none;endFill=0;jettySize=auto;orthogonalLoop=1;strokeWidth=1;fontSize=12;exitPerimeter=0;labelBackgroundColor=none;fontColor=default;" edge="1" parent="WIyWlLk6GJQsqaUBKTNV-1" source="WX14FEPXoOFvyEs8KOCt-72">
          <mxGeometry relative="1" as="geometry">
            <mxPoint x="920" y="1408" as="targetPoint" />
            <Array as="points">
              <mxPoint x="920" y="1509" />
              <mxPoint x="920" y="1448" />
            </Array>
          </mxGeometry>
        </mxCell>
        <mxCell id="WX14FEPXoOFvyEs8KOCt-121" value="RentalInsurance" style="swimlane;fontStyle=3;align=center;verticalAlign=top;childLayout=stackLayout;horizontal=1;startSize=26;horizontalStack=0;resizeParent=1;resizeParentMax=0;resizeLast=0;collapsible=1;marginBottom=0;swimlaneFillColor=#ffffff;rounded=0;shadow=1;glass=0;comic=0;labelBackgroundColor=none;strokeWidth=1;fontSize=12;html=0;" vertex="1" parent="WIyWlLk6GJQsqaUBKTNV-1">
          <mxGeometry x="707" y="1277.5" width="180" height="86" as="geometry" />
        </mxCell>
        <mxCell id="WX14FEPXoOFvyEs8KOCt-122" value="insuranceID: string" style="text;strokeColor=none;fillColor=none;align=left;verticalAlign=top;spacingLeft=4;spacingRight=4;overflow=hidden;rotatable=0;points=[[0,0.5],[1,0.5]];portConstraint=eastwest;labelBackgroundColor=none;" vertex="1" parent="WX14FEPXoOFvyEs8KOCt-121">
          <mxGeometry y="26" width="180" height="26" as="geometry" />
        </mxCell>
        <mxCell id="WX14FEPXoOFvyEs8KOCt-123" value="" style="line;strokeWidth=1;fillColor=none;align=left;verticalAlign=middle;spacingTop=-1;spacingLeft=3;spacingRight=3;rotatable=0;labelPosition=right;points=[];portConstraint=eastwest;labelBackgroundColor=none;" vertex="1" parent="WX14FEPXoOFvyEs8KOCt-121">
          <mxGeometry y="52" width="180" height="8" as="geometry" />
        </mxCell>
        <mxCell id="WX14FEPXoOFvyEs8KOCt-124" value="addInsurance(): bool" style="text;strokeColor=none;fillColor=none;align=left;verticalAlign=top;spacingLeft=4;spacingRight=4;overflow=hidden;rotatable=0;points=[[0,0.5],[1,0.5]];portConstraint=eastwest;labelBackgroundColor=none;" vertex="1" parent="WX14FEPXoOFvyEs8KOCt-121">
          <mxGeometry y="60" width="180" height="26" as="geometry" />
        </mxCell>
        <mxCell id="WX14FEPXoOFvyEs8KOCt-125" value="Car" style="swimlane;fontStyle=1;align=center;verticalAlign=top;childLayout=stackLayout;horizontal=1;startSize=26;horizontalStack=0;resizeParent=1;resizeParentMax=0;resizeLast=0;collapsible=1;marginBottom=0;swimlaneFillColor=#ffffff;rounded=0;shadow=1;glass=0;comic=0;labelBackgroundColor=none;strokeWidth=1;fontSize=12;html=0;" vertex="1" parent="WIyWlLk6GJQsqaUBKTNV-1">
          <mxGeometry x="190" y="604" width="142" height="52" as="geometry" />
        </mxCell>
        <mxCell id="WX14FEPXoOFvyEs8KOCt-126" value="type: CarType" style="text;strokeColor=none;fillColor=none;align=left;verticalAlign=top;spacingLeft=4;spacingRight=4;overflow=hidden;rotatable=0;points=[[0,0.5],[1,0.5]];portConstraint=eastwest;labelBackgroundColor=none;" vertex="1" parent="WX14FEPXoOFvyEs8KOCt-125">
          <mxGeometry y="26" width="142" height="26" as="geometry" />
        </mxCell>
        <mxCell id="WX14FEPXoOFvyEs8KOCt-127" value="Truck" style="swimlane;fontStyle=1;align=center;verticalAlign=top;childLayout=stackLayout;horizontal=1;startSize=26;horizontalStack=0;resizeParent=1;resizeParentMax=0;resizeLast=0;collapsible=1;marginBottom=0;swimlaneFillColor=#ffffff;rounded=0;shadow=1;glass=0;comic=0;labelBackgroundColor=none;strokeWidth=1;fontSize=12;html=0;" vertex="1" parent="WIyWlLk6GJQsqaUBKTNV-1">
          <mxGeometry x="190" y="668" width="142" height="52" as="geometry" />
        </mxCell>
        <mxCell id="WX14FEPXoOFvyEs8KOCt-128" value="type: string" style="text;strokeColor=none;fillColor=none;align=left;verticalAlign=top;spacingLeft=4;spacingRight=4;overflow=hidden;rotatable=0;points=[[0,0.5],[1,0.5]];portConstraint=eastwest;labelBackgroundColor=none;" vertex="1" parent="WX14FEPXoOFvyEs8KOCt-127">
          <mxGeometry y="26" width="142" height="26" as="geometry" />
        </mxCell>
        <mxCell id="WX14FEPXoOFvyEs8KOCt-129" value="SUV" style="swimlane;fontStyle=1;align=center;verticalAlign=top;childLayout=stackLayout;horizontal=1;startSize=26;horizontalStack=0;resizeParent=1;resizeParentMax=0;resizeLast=0;collapsible=1;marginBottom=0;swimlaneFillColor=#ffffff;rounded=0;shadow=1;glass=0;comic=0;labelBackgroundColor=none;strokeWidth=1;fontSize=12;html=0;" vertex="1" parent="WIyWlLk6GJQsqaUBKTNV-1">
          <mxGeometry x="190" y="733" width="142" height="52" as="geometry" />
        </mxCell>
        <mxCell id="WX14FEPXoOFvyEs8KOCt-130" value="type: string" style="text;strokeColor=none;fillColor=none;align=left;verticalAlign=top;spacingLeft=4;spacingRight=4;overflow=hidden;rotatable=0;points=[[0,0.5],[1,0.5]];portConstraint=eastwest;labelBackgroundColor=none;" vertex="1" parent="WX14FEPXoOFvyEs8KOCt-129">
          <mxGeometry y="26" width="142" height="26" as="geometry" />
        </mxCell>
        <mxCell id="WX14FEPXoOFvyEs8KOCt-131" value="Van" style="swimlane;fontStyle=1;align=center;verticalAlign=top;childLayout=stackLayout;horizontal=1;startSize=26;horizontalStack=0;resizeParent=1;resizeParentMax=0;resizeLast=0;collapsible=1;marginBottom=0;swimlaneFillColor=#ffffff;rounded=0;shadow=1;glass=0;comic=0;labelBackgroundColor=none;strokeWidth=1;fontSize=12;html=0;" vertex="1" parent="WIyWlLk6GJQsqaUBKTNV-1">
          <mxGeometry x="190" y="800" width="143" height="52" as="geometry" />
        </mxCell>
        <mxCell id="WX14FEPXoOFvyEs8KOCt-132" value="type: VanType" style="text;strokeColor=none;fillColor=none;align=left;verticalAlign=top;spacingLeft=4;spacingRight=4;overflow=hidden;rotatable=0;points=[[0,0.5],[1,0.5]];portConstraint=eastwest;labelBackgroundColor=none;" vertex="1" parent="WX14FEPXoOFvyEs8KOCt-131">
          <mxGeometry y="26" width="143" height="26" as="geometry" />
        </mxCell>
        <mxCell id="WX14FEPXoOFvyEs8KOCt-133" value="Motorcycle" style="swimlane;fontStyle=1;align=center;verticalAlign=top;childLayout=stackLayout;horizontal=1;startSize=26;horizontalStack=0;resizeParent=1;resizeParentMax=0;resizeLast=0;collapsible=1;marginBottom=0;swimlaneFillColor=#ffffff;rounded=0;shadow=1;glass=0;comic=0;labelBackgroundColor=none;strokeWidth=1;fontSize=12;html=0;" vertex="1" parent="WIyWlLk6GJQsqaUBKTNV-1">
          <mxGeometry x="190" y="870" width="142" height="52" as="geometry" />
        </mxCell>
        <mxCell id="WX14FEPXoOFvyEs8KOCt-134" value="type: string" style="text;strokeColor=none;fillColor=none;align=left;verticalAlign=top;spacingLeft=4;spacingRight=4;overflow=hidden;rotatable=0;points=[[0,0.5],[1,0.5]];portConstraint=eastwest;labelBackgroundColor=none;" vertex="1" parent="WX14FEPXoOFvyEs8KOCt-133">
          <mxGeometry y="26" width="142" height="26" as="geometry" />
        </mxCell>
        <mxCell id="WX14FEPXoOFvyEs8KOCt-135" value="&lt;p style=&quot;margin: 4px 0px 0px ; text-align: center&quot;&gt;&lt;span&gt;enumeration&lt;/span&gt;&lt;/p&gt;&lt;p style=&quot;margin: 0px ; margin-top: 4px ; text-align: center ; text-decoration: underline&quot;&gt;&lt;b&gt;VanType&lt;/b&gt;&lt;/p&gt;&lt;hr&gt;&lt;p style=&quot;margin: 0px ; margin-left: 8px&quot;&gt;Passenger&lt;/p&gt;&lt;p style=&quot;margin: 0px ; margin-left: 8px&quot;&gt;Cargo&lt;/p&gt;" style="verticalAlign=top;align=left;overflow=fill;fontSize=12;fontFamily=Helvetica;html=1;rounded=0;shadow=1;glass=0;comic=0;strokeWidth=1;labelBackgroundColor=none;" vertex="1" parent="WIyWlLk6GJQsqaUBKTNV-1">
          <mxGeometry x="380" y="180" width="106" height="89" as="geometry" />
        </mxCell>
        <mxCell id="WX14FEPXoOFvyEs8KOCt-136" style="edgeStyle=none;rounded=0;html=1;exitX=0.653;exitY=0;startArrow=none;startFill=0;endArrow=none;endFill=0;jettySize=auto;orthogonalLoop=1;strokeWidth=1;fontSize=20;exitPerimeter=0;labelBackgroundColor=none;fontColor=default;" edge="1" parent="WIyWlLk6GJQsqaUBKTNV-1" source="WX14FEPXoOFvyEs8KOCt-137">
          <mxGeometry relative="1" as="geometry">
            <mxPoint x="579" y="1235" as="targetPoint" />
            <Array as="points">
              <mxPoint x="356" y="1235" />
            </Array>
          </mxGeometry>
        </mxCell>
        <mxCell id="WX14FEPXoOFvyEs8KOCt-137" value="Service" style="swimlane;fontStyle=3;align=center;verticalAlign=top;childLayout=stackLayout;horizontal=1;startSize=26;horizontalStack=0;resizeParent=1;resizeParentMax=0;resizeLast=0;collapsible=1;marginBottom=0;swimlaneFillColor=#ffffff;rounded=0;shadow=1;glass=0;comic=0;labelBackgroundColor=none;strokeWidth=1;fontSize=12;html=0;" vertex="1" parent="WIyWlLk6GJQsqaUBKTNV-1">
          <mxGeometry x="250" y="1277" width="163" height="86" as="geometry" />
        </mxCell>
        <mxCell id="WX14FEPXoOFvyEs8KOCt-138" value="serviceID: string" style="text;strokeColor=none;fillColor=none;align=left;verticalAlign=top;spacingLeft=4;spacingRight=4;overflow=hidden;rotatable=0;points=[[0,0.5],[1,0.5]];portConstraint=eastwest;labelBackgroundColor=none;" vertex="1" parent="WX14FEPXoOFvyEs8KOCt-137">
          <mxGeometry y="26" width="163" height="26" as="geometry" />
        </mxCell>
        <mxCell id="WX14FEPXoOFvyEs8KOCt-139" value="" style="line;strokeWidth=1;fillColor=none;align=left;verticalAlign=middle;spacingTop=-1;spacingLeft=3;spacingRight=3;rotatable=0;labelPosition=right;points=[];portConstraint=eastwest;labelBackgroundColor=none;" vertex="1" parent="WX14FEPXoOFvyEs8KOCt-137">
          <mxGeometry y="52" width="163" height="8" as="geometry" />
        </mxCell>
        <mxCell id="WX14FEPXoOFvyEs8KOCt-140" value="addService(): bool" style="text;strokeColor=none;fillColor=none;align=left;verticalAlign=top;spacingLeft=4;spacingRight=4;overflow=hidden;rotatable=0;points=[[0,0.5],[1,0.5]];portConstraint=eastwest;labelBackgroundColor=none;" vertex="1" parent="WX14FEPXoOFvyEs8KOCt-137">
          <mxGeometry y="60" width="163" height="26" as="geometry" />
        </mxCell>
        <mxCell id="WX14FEPXoOFvyEs8KOCt-141" value="Driver" style="swimlane;fontStyle=1;align=center;verticalAlign=top;childLayout=stackLayout;horizontal=1;startSize=26;horizontalStack=0;resizeParent=1;resizeParentMax=0;resizeLast=0;collapsible=1;marginBottom=0;swimlaneFillColor=#ffffff;rounded=0;shadow=1;glass=0;comic=0;labelBackgroundColor=none;strokeWidth=1;fontSize=12;html=0;" vertex="1" parent="WIyWlLk6GJQsqaUBKTNV-1">
          <mxGeometry x="250" y="1400" width="165" height="34" as="geometry" />
        </mxCell>
        <mxCell id="WX14FEPXoOFvyEs8KOCt-142" value="RoadsideAssistance" style="swimlane;fontStyle=1;align=center;verticalAlign=top;childLayout=stackLayout;horizontal=1;startSize=26;horizontalStack=0;resizeParent=1;resizeParentMax=0;resizeLast=0;collapsible=1;marginBottom=0;swimlaneFillColor=#ffffff;rounded=0;shadow=1;glass=0;comic=0;labelBackgroundColor=none;strokeWidth=1;fontSize=12;html=0;" vertex="1" parent="WIyWlLk6GJQsqaUBKTNV-1">
          <mxGeometry x="250" y="1450" width="164" height="33" as="geometry" />
        </mxCell>
        <mxCell id="WX14FEPXoOFvyEs8KOCt-143" value="WiFi" style="swimlane;fontStyle=1;align=center;verticalAlign=top;childLayout=stackLayout;horizontal=1;startSize=26;horizontalStack=0;resizeParent=1;resizeParentMax=0;resizeLast=0;collapsible=1;marginBottom=0;swimlaneFillColor=#ffffff;rounded=0;shadow=1;glass=0;comic=0;labelBackgroundColor=none;strokeWidth=1;fontSize=12;html=0;" vertex="1" parent="WIyWlLk6GJQsqaUBKTNV-1">
          <mxGeometry x="250" y="1499" width="164" height="34" as="geometry" />
        </mxCell>
        <mxCell id="WX14FEPXoOFvyEs8KOCt-144" style="edgeStyle=none;rounded=0;html=1;exitX=0.5;exitY=0;startArrow=none;startFill=0;endArrow=none;endFill=0;jettySize=auto;orthogonalLoop=1;strokeWidth=1;fontSize=20;labelBackgroundColor=none;fontColor=default;" edge="1" parent="WIyWlLk6GJQsqaUBKTNV-1" source="WX14FEPXoOFvyEs8KOCt-145">
          <mxGeometry relative="1" as="geometry">
            <mxPoint x="772" y="1235" as="targetPoint" />
            <Array as="points">
              <mxPoint x="562" y="1235" />
            </Array>
          </mxGeometry>
        </mxCell>
        <mxCell id="WX14FEPXoOFvyEs8KOCt-145" value="Equipment" style="swimlane;fontStyle=3;align=center;verticalAlign=top;childLayout=stackLayout;horizontal=1;startSize=26;horizontalStack=0;resizeParent=1;resizeParentMax=0;resizeLast=0;collapsible=1;marginBottom=0;swimlaneFillColor=#ffffff;rounded=0;shadow=1;glass=0;comic=0;labelBackgroundColor=none;strokeWidth=1;fontSize=12;html=0;" vertex="1" parent="WIyWlLk6GJQsqaUBKTNV-1">
          <mxGeometry x="471.5" y="1276" width="180" height="86" as="geometry" />
        </mxCell>
        <mxCell id="WX14FEPXoOFvyEs8KOCt-146" value="equipmentId: string" style="text;strokeColor=none;fillColor=none;align=left;verticalAlign=top;spacingLeft=4;spacingRight=4;overflow=hidden;rotatable=0;points=[[0,0.5],[1,0.5]];portConstraint=eastwest;labelBackgroundColor=none;" vertex="1" parent="WX14FEPXoOFvyEs8KOCt-145">
          <mxGeometry y="26" width="180" height="26" as="geometry" />
        </mxCell>
        <mxCell id="WX14FEPXoOFvyEs8KOCt-147" value="" style="line;strokeWidth=1;fillColor=none;align=left;verticalAlign=middle;spacingTop=-1;spacingLeft=3;spacingRight=3;rotatable=0;labelPosition=right;points=[];portConstraint=eastwest;labelBackgroundColor=none;" vertex="1" parent="WX14FEPXoOFvyEs8KOCt-145">
          <mxGeometry y="52" width="180" height="8" as="geometry" />
        </mxCell>
        <mxCell id="WX14FEPXoOFvyEs8KOCt-148" value="addEquipment(): bool" style="text;strokeColor=none;fillColor=none;align=left;verticalAlign=top;spacingLeft=4;spacingRight=4;overflow=hidden;rotatable=0;points=[[0,0.5],[1,0.5]];portConstraint=eastwest;labelBackgroundColor=none;" vertex="1" parent="WX14FEPXoOFvyEs8KOCt-145">
          <mxGeometry y="60" width="180" height="26" as="geometry" />
        </mxCell>
        <mxCell id="WX14FEPXoOFvyEs8KOCt-149" value="Navigation" style="swimlane;fontStyle=1;align=center;verticalAlign=top;childLayout=stackLayout;horizontal=1;startSize=26;horizontalStack=0;resizeParent=1;resizeParentMax=0;resizeLast=0;collapsible=1;marginBottom=0;swimlaneFillColor=#ffffff;rounded=0;shadow=1;glass=0;comic=0;labelBackgroundColor=none;strokeWidth=1;fontSize=12;html=0;" vertex="1" parent="WIyWlLk6GJQsqaUBKTNV-1">
          <mxGeometry x="470.5" y="1399.5" width="180" height="34" as="geometry" />
        </mxCell>
        <mxCell id="WX14FEPXoOFvyEs8KOCt-150" value="ChildSeat" style="swimlane;fontStyle=1;align=center;verticalAlign=top;childLayout=stackLayout;horizontal=1;startSize=26;horizontalStack=0;resizeParent=1;resizeParentMax=0;resizeLast=0;collapsible=1;marginBottom=0;swimlaneFillColor=#ffffff;rounded=0;shadow=1;glass=0;comic=0;labelBackgroundColor=none;strokeWidth=1;fontSize=12;html=0;" vertex="1" parent="WIyWlLk6GJQsqaUBKTNV-1">
          <mxGeometry x="470.5" y="1451" width="180" height="33" as="geometry" />
        </mxCell>
        <mxCell id="WX14FEPXoOFvyEs8KOCt-151" value="SkiRack" style="swimlane;fontStyle=1;align=center;verticalAlign=top;childLayout=stackLayout;horizontal=1;startSize=26;horizontalStack=0;resizeParent=1;resizeParentMax=0;resizeLast=0;collapsible=1;marginBottom=0;swimlaneFillColor=#ffffff;rounded=0;shadow=1;glass=0;comic=0;labelBackgroundColor=none;strokeWidth=1;fontSize=12;html=0;" vertex="1" parent="WIyWlLk6GJQsqaUBKTNV-1">
          <mxGeometry x="470.5" y="1501.5" width="180" height="34" as="geometry" />
        </mxCell>
        <mxCell id="WX14FEPXoOFvyEs8KOCt-152" value="UserInsurance" style="swimlane;fontStyle=1;align=center;verticalAlign=top;childLayout=stackLayout;horizontal=1;startSize=26;horizontalStack=0;resizeParent=1;resizeParentMax=0;resizeLast=0;collapsible=1;marginBottom=0;swimlaneFillColor=#ffffff;rounded=0;shadow=1;glass=0;comic=0;labelBackgroundColor=none;strokeWidth=1;fontSize=12;html=0;" vertex="1" parent="WIyWlLk6GJQsqaUBKTNV-1">
          <mxGeometry x="707" y="1399.5" width="180" height="34" as="geometry" />
        </mxCell>
        <mxCell id="WX14FEPXoOFvyEs8KOCt-153" value="Belonginglnsurance" style="swimlane;fontStyle=1;align=center;verticalAlign=top;childLayout=stackLayout;horizontal=1;startSize=26;horizontalStack=0;resizeParent=1;resizeParentMax=0;resizeLast=0;collapsible=1;marginBottom=0;swimlaneFillColor=#ffffff;rounded=0;shadow=1;glass=0;comic=0;labelBackgroundColor=none;strokeWidth=1;fontSize=12;html=0;" vertex="1" parent="WIyWlLk6GJQsqaUBKTNV-1">
          <mxGeometry x="704.5" y="1450" width="180" height="34" as="geometry" />
        </mxCell>
        <mxCell id="WX14FEPXoOFvyEs8KOCt-154" value="Liabilitylnsurance" style="swimlane;fontStyle=1;align=center;verticalAlign=top;childLayout=stackLayout;horizontal=1;startSize=26;horizontalStack=0;resizeParent=1;resizeParentMax=0;resizeLast=0;collapsible=1;marginBottom=0;swimlaneFillColor=#ffffff;rounded=0;shadow=1;glass=0;comic=0;labelBackgroundColor=none;strokeWidth=1;fontSize=12;html=0;" vertex="1" parent="WIyWlLk6GJQsqaUBKTNV-1">
          <mxGeometry x="705" y="1498.5" width="180" height="34" as="geometry" />
        </mxCell>
        <mxCell id="WX14FEPXoOFvyEs8KOCt-155" value="AdditionalDriver" style="swimlane;fontStyle=1;align=center;verticalAlign=top;childLayout=stackLayout;horizontal=1;startSize=26;horizontalStack=0;resizeParent=1;resizeParentMax=0;resizeLast=0;collapsible=1;marginBottom=0;swimlaneFillColor=#ffffff;rounded=0;shadow=1;glass=0;comic=0;labelBackgroundColor=none;strokeWidth=1;fontSize=12;html=0;" vertex="1" parent="WIyWlLk6GJQsqaUBKTNV-1">
          <mxGeometry x="1179" y="779" width="152" height="78" as="geometry" />
        </mxCell>
        <mxCell id="WX14FEPXoOFvyEs8KOCt-156" value="driverID: string" style="text;strokeColor=none;fillColor=none;align=left;verticalAlign=top;spacingLeft=4;spacingRight=4;overflow=hidden;rotatable=0;points=[[0,0.5],[1,0.5]];portConstraint=eastwest;labelBackgroundColor=none;" vertex="1" parent="WX14FEPXoOFvyEs8KOCt-155">
          <mxGeometry y="26" width="152" height="26" as="geometry" />
        </mxCell>
        <mxCell id="WX14FEPXoOFvyEs8KOCt-157" value="user: User" style="text;strokeColor=none;fillColor=none;align=left;verticalAlign=top;spacingLeft=4;spacingRight=4;overflow=hidden;rotatable=0;points=[[0,0.5],[1,0.5]];portConstraint=eastwest;labelBackgroundColor=none;" vertex="1" parent="WX14FEPXoOFvyEs8KOCt-155">
          <mxGeometry y="52" width="152" height="26" as="geometry" />
        </mxCell>
        <mxCell id="WX14FEPXoOFvyEs8KOCt-158" value="VehicleLog" style="swimlane;fontStyle=1;align=center;verticalAlign=top;childLayout=stackLayout;horizontal=1;startSize=26;horizontalStack=0;resizeParent=1;resizeParentMax=0;resizeLast=0;collapsible=1;marginBottom=0;swimlaneFillColor=#ffffff;rounded=0;shadow=1;glass=0;comic=0;labelBackgroundColor=none;strokeWidth=1;fontSize=12;html=0;" vertex="1" parent="WIyWlLk6GJQsqaUBKTNV-1">
          <mxGeometry x="190" y="968" width="152" height="164" as="geometry" />
        </mxCell>
        <mxCell id="WX14FEPXoOFvyEs8KOCt-159" value="id: string" style="text;strokeColor=none;fillColor=none;align=left;verticalAlign=top;spacingLeft=4;spacingRight=4;overflow=hidden;rotatable=0;points=[[0,0.5],[1,0.5]];portConstraint=eastwest;labelBackgroundColor=none;" vertex="1" parent="WX14FEPXoOFvyEs8KOCt-158">
          <mxGeometry y="26" width="152" height="26" as="geometry" />
        </mxCell>
        <mxCell id="WX14FEPXoOFvyEs8KOCt-160" value="type: VehicleLogType" style="text;strokeColor=none;fillColor=none;align=left;verticalAlign=top;spacingLeft=4;spacingRight=4;overflow=hidden;rotatable=0;points=[[0,0.5],[1,0.5]];portConstraint=eastwest;labelBackgroundColor=none;" vertex="1" parent="WX14FEPXoOFvyEs8KOCt-158">
          <mxGeometry y="52" width="152" height="26" as="geometry" />
        </mxCell>
        <mxCell id="WX14FEPXoOFvyEs8KOCt-161" value="description: string" style="text;strokeColor=none;fillColor=none;align=left;verticalAlign=top;spacingLeft=4;spacingRight=4;overflow=hidden;rotatable=0;points=[[0,0.5],[1,0.5]];portConstraint=eastwest;labelBackgroundColor=none;" vertex="1" parent="WX14FEPXoOFvyEs8KOCt-158">
          <mxGeometry y="78" width="152" height="26" as="geometry" />
        </mxCell>
        <mxCell id="WX14FEPXoOFvyEs8KOCt-162" value="creationDate: date" style="text;strokeColor=none;fillColor=none;align=left;verticalAlign=top;spacingLeft=4;spacingRight=4;overflow=hidden;rotatable=0;points=[[0,0.5],[1,0.5]];portConstraint=eastwest;labelBackgroundColor=none;" vertex="1" parent="WX14FEPXoOFvyEs8KOCt-158">
          <mxGeometry y="104" width="152" height="26" as="geometry" />
        </mxCell>
        <mxCell id="WX14FEPXoOFvyEs8KOCt-163" value="" style="line;strokeWidth=1;fillColor=none;align=left;verticalAlign=middle;spacingTop=-1;spacingLeft=3;spacingRight=3;rotatable=0;labelPosition=right;points=[];portConstraint=eastwest;labelBackgroundColor=none;" vertex="1" parent="WX14FEPXoOFvyEs8KOCt-158">
          <mxGeometry y="130" width="152" height="8" as="geometry" />
        </mxCell>
        <mxCell id="WX14FEPXoOFvyEs8KOCt-164" value="searchByLogType(): list&lt;&gt;" style="text;strokeColor=none;fillColor=none;align=left;verticalAlign=top;spacingLeft=4;spacingRight=4;overflow=hidden;rotatable=0;points=[[0,0.5],[1,0.5]];portConstraint=eastwest;labelBackgroundColor=none;" vertex="1" parent="WX14FEPXoOFvyEs8KOCt-158">
          <mxGeometry y="138" width="152" height="26" as="geometry" />
        </mxCell>
        <mxCell id="WX14FEPXoOFvyEs8KOCt-165" value="&lt;p style=&quot;margin: 4px 0px 0px ; text-align: center&quot;&gt;&amp;lt;&amp;lt;&lt;span&gt;enumeration&lt;/span&gt;&amp;gt;&amp;gt;&lt;/p&gt;&lt;p style=&quot;margin: 0px ; margin-top: 4px ; text-align: center ; text-decoration: underline&quot;&gt;&lt;b&gt;VehicleLogType&lt;/b&gt;&lt;/p&gt;&lt;hr&gt;&lt;p style=&quot;margin: 0px ; margin-left: 8px&quot;&gt;Accident&lt;/p&gt;&lt;p style=&quot;margin: 0px ; margin-left: 8px&quot;&gt;Fueling&lt;/p&gt;&lt;p style=&quot;margin: 0px ; margin-left: 8px&quot;&gt;&lt;span&gt;CleaningService&lt;/span&gt;&lt;/p&gt;&lt;p style=&quot;margin: 0px ; margin-left: 8px&quot;&gt;&lt;span&gt;OilChange&lt;/span&gt;&lt;/p&gt;&lt;p style=&quot;margin: 0px ; margin-left: 8px&quot;&gt;&lt;span&gt;Repair&lt;/span&gt;&lt;/p&gt;&lt;p style=&quot;margin: 0px ; margin-left: 8px&quot;&gt;Other&lt;/p&gt;&lt;p style=&quot;margin: 0px ; margin-left: 8px&quot;&gt;&lt;span&gt;&lt;br&gt;&lt;/span&gt;&lt;/p&gt;" style="verticalAlign=top;align=left;overflow=fill;fontSize=12;fontFamily=Helvetica;html=1;rounded=0;shadow=1;glass=0;comic=0;strokeWidth=1;labelBackgroundColor=none;" vertex="1" parent="WIyWlLk6GJQsqaUBKTNV-1">
          <mxGeometry x="232" y="180" width="110" height="139" as="geometry" />
        </mxCell>
        <mxCell id="WX14FEPXoOFvyEs8KOCt-166" value="BillItem" style="swimlane;fontStyle=1;align=center;verticalAlign=top;childLayout=stackLayout;horizontal=1;startSize=26;horizontalStack=0;resizeParent=1;resizeParentMax=0;resizeLast=0;collapsible=1;marginBottom=0;swimlaneFillColor=#ffffff;rounded=0;shadow=1;glass=0;comic=0;labelBackgroundColor=none;strokeWidth=1;fontSize=12;html=0;" vertex="1" parent="WIyWlLk6GJQsqaUBKTNV-1">
          <mxGeometry x="1179" y="874" width="151" height="78" as="geometry" />
        </mxCell>
        <mxCell id="WX14FEPXoOFvyEs8KOCt-167" value="amount: double" style="text;strokeColor=none;fillColor=none;align=left;verticalAlign=top;spacingLeft=4;spacingRight=4;overflow=hidden;rotatable=0;points=[[0,0.5],[1,0.5]];portConstraint=eastwest;labelBackgroundColor=none;" vertex="1" parent="WX14FEPXoOFvyEs8KOCt-166">
          <mxGeometry y="26" width="151" height="26" as="geometry" />
        </mxCell>
        <mxCell id="WX14FEPXoOFvyEs8KOCt-168" value="service: string" style="text;strokeColor=none;fillColor=none;align=left;verticalAlign=top;spacingLeft=4;spacingRight=4;overflow=hidden;rotatable=0;points=[[0,0.5],[1,0.5]];portConstraint=eastwest;labelBackgroundColor=none;" vertex="1" parent="WX14FEPXoOFvyEs8KOCt-166">
          <mxGeometry y="52" width="151" height="26" as="geometry" />
        </mxCell>
        <mxCell id="WX14FEPXoOFvyEs8KOCt-169" value="&lt;p style=&quot;margin: 4px 0px 0px ; text-align: center&quot;&gt;&amp;lt;&amp;lt;&lt;span&gt;enumeration&lt;/span&gt;&amp;gt;&amp;gt;&lt;/p&gt;&lt;p style=&quot;margin: 0px ; margin-top: 4px ; text-align: center ; text-decoration: underline&quot;&gt;&lt;b&gt;BillItemType&lt;/b&gt;&lt;/p&gt;&lt;hr&gt;&lt;p style=&quot;margin: 0px ; margin-left: 8px&quot;&gt;BaseCharge&lt;/p&gt;&lt;p style=&quot;margin: 0px ; margin-left: 8px&quot;&gt;AdditionalService&lt;/p&gt;&lt;p style=&quot;margin: 0px ; margin-left: 8px&quot;&gt;&lt;span&gt;Fine&lt;/span&gt;&lt;/p&gt;&lt;p style=&quot;margin: 0px ; margin-left: 8px&quot;&gt;&lt;span&gt;toll tax&lt;/span&gt;&lt;/p&gt;&lt;p style=&quot;margin: 0px ; margin-left: 8px&quot;&gt;&lt;span&gt;Other&lt;/span&gt;&lt;br&gt;&lt;/p&gt;&lt;p style=&quot;margin: 0px ; margin-left: 8px&quot;&gt;&lt;span&gt;&lt;br&gt;&lt;/span&gt;&lt;/p&gt;" style="verticalAlign=top;align=left;overflow=fill;fontSize=12;fontFamily=Helvetica;html=1;rounded=0;shadow=1;glass=0;comic=0;strokeWidth=1;labelBackgroundColor=none;" vertex="1" parent="WIyWlLk6GJQsqaUBKTNV-1">
          <mxGeometry x="70" y="183" width="110" height="120" as="geometry" />
        </mxCell>
        <mxCell id="WX14FEPXoOFvyEs8KOCt-170" value="CarRentalSystem" style="swimlane;fontStyle=1;align=center;verticalAlign=top;childLayout=stackLayout;horizontal=1;startSize=26;horizontalStack=0;resizeParent=1;resizeParentMax=0;resizeLast=0;collapsible=1;marginBottom=0;swimlaneFillColor=#ffffff;rounded=0;shadow=1;glass=0;comic=0;labelBackgroundColor=none;strokeWidth=1;fontSize=12;html=0;" vertex="1" parent="WIyWlLk6GJQsqaUBKTNV-1">
          <mxGeometry x="190" y="408" width="143" height="86" as="geometry" />
        </mxCell>
        <mxCell id="WX14FEPXoOFvyEs8KOCt-171" value="name: string" style="text;strokeColor=none;fillColor=none;align=left;verticalAlign=top;spacingLeft=4;spacingRight=4;overflow=hidden;rotatable=0;points=[[0,0.5],[1,0.5]];portConstraint=eastwest;labelBackgroundColor=none;" vertex="1" parent="WX14FEPXoOFvyEs8KOCt-170">
          <mxGeometry y="26" width="143" height="26" as="geometry" />
        </mxCell>
        <mxCell id="WX14FEPXoOFvyEs8KOCt-172" value="" style="line;strokeWidth=1;fillColor=none;align=left;verticalAlign=middle;spacingTop=-1;spacingLeft=3;spacingRight=3;rotatable=0;labelPosition=right;points=[];portConstraint=eastwest;labelBackgroundColor=none;" vertex="1" parent="WX14FEPXoOFvyEs8KOCt-170">
          <mxGeometry y="52" width="143" height="8" as="geometry" />
        </mxCell>
        <mxCell id="WX14FEPXoOFvyEs8KOCt-173" value="addNewLocation(): bool" style="text;strokeColor=none;fillColor=none;align=left;verticalAlign=top;spacingLeft=4;spacingRight=4;overflow=hidden;rotatable=0;points=[[0,0.5],[1,0.5]];portConstraint=eastwest;labelBackgroundColor=none;" vertex="1" parent="WX14FEPXoOFvyEs8KOCt-170">
          <mxGeometry y="60" width="143" height="26" as="geometry" />
        </mxCell>
        <mxCell id="WX14FEPXoOFvyEs8KOCt-174" value="" style="endArrow=none;html=1;shadow=0;strokeWidth=1;fontSize=15;fontColor=default;startArrow=diamondThin;startFill=1;endSize=14;startSize=14;entryX=0;entryY=0.5;exitX=0.75;exitY=0;labelBackgroundColor=none;" edge="1" parent="WIyWlLk6GJQsqaUBKTNV-1" source="WX14FEPXoOFvyEs8KOCt-40" target="WX14FEPXoOFvyEs8KOCt-156">
          <mxGeometry relative="1" as="geometry">
            <mxPoint x="1037" y="1146" as="sourcePoint" />
            <mxPoint x="1038" y="1250" as="targetPoint" />
          </mxGeometry>
        </mxCell>
        <mxCell id="WX14FEPXoOFvyEs8KOCt-175" value="" style="resizable=0;html=1;align=left;verticalAlign=bottom;labelBackgroundColor=none;fontSize=10;" vertex="1" connectable="0" parent="WX14FEPXoOFvyEs8KOCt-174">
          <mxGeometry x="-1" relative="1" as="geometry">
            <mxPoint x="-14" y="-15" as="offset" />
          </mxGeometry>
        </mxCell>
        <mxCell id="WX14FEPXoOFvyEs8KOCt-176" value="" style="endArrow=none;html=1;shadow=0;strokeWidth=1;fontSize=15;fontColor=default;startArrow=diamondThin;startFill=1;endSize=14;startSize=14;entryX=0.536;entryY=1.115;entryPerimeter=0;labelBackgroundColor=none;" edge="1" parent="WIyWlLk6GJQsqaUBKTNV-1" target="WX14FEPXoOFvyEs8KOCt-168">
          <mxGeometry relative="1" as="geometry">
            <mxPoint x="1260" y="1008" as="sourcePoint" />
            <mxPoint x="1300" y="998" as="targetPoint" />
          </mxGeometry>
        </mxCell>
        <mxCell id="WX14FEPXoOFvyEs8KOCt-177" value="" style="resizable=0;html=1;align=left;verticalAlign=bottom;labelBackgroundColor=none;fontSize=10;" vertex="1" connectable="0" parent="WX14FEPXoOFvyEs8KOCt-176">
          <mxGeometry x="-1" relative="1" as="geometry">
            <mxPoint x="-14" y="-15" as="offset" />
          </mxGeometry>
        </mxCell>
        <mxCell id="WX14FEPXoOFvyEs8KOCt-178" value="Extends" style="endArrow=block;endSize=16;endFill=0;html=1;shadow=0;strokeWidth=1;fontSize=12;fontColor=default;entryX=0;entryY=0.5;rounded=0;exitX=1;exitY=0.5;labelBackgroundColor=none;" edge="1" parent="WIyWlLk6GJQsqaUBKTNV-1" source="WX14FEPXoOFvyEs8KOCt-126" target="WX14FEPXoOFvyEs8KOCt-13">
          <mxGeometry x="0.7073" y="18" width="160" relative="1" as="geometry">
            <mxPoint x="308" y="571" as="sourcePoint" />
            <mxPoint x="410" y="852" as="targetPoint" />
            <Array as="points">
              <mxPoint x="330" y="643" />
              <mxPoint x="350" y="643" />
              <mxPoint x="350" y="708" />
              <mxPoint x="350" y="748" />
              <mxPoint x="350" y="766" />
            </Array>
            <mxPoint as="offset" />
          </mxGeometry>
        </mxCell>
        <mxCell id="WX14FEPXoOFvyEs8KOCt-179" style="edgeStyle=none;rounded=0;html=1;exitX=1;exitY=0.5;startArrow=none;startFill=0;endArrow=none;endFill=0;jettySize=auto;orthogonalLoop=1;strokeWidth=1;fontSize=20;labelBackgroundColor=none;fontColor=default;" edge="1" parent="WIyWlLk6GJQsqaUBKTNV-1" source="WX14FEPXoOFvyEs8KOCt-128">
          <mxGeometry relative="1" as="geometry">
            <mxPoint x="350" y="707" as="targetPoint" />
          </mxGeometry>
        </mxCell>
        <mxCell id="WX14FEPXoOFvyEs8KOCt-180" style="edgeStyle=none;rounded=0;html=1;exitX=1;exitY=0.5;startArrow=none;startFill=0;endArrow=none;endFill=0;jettySize=auto;orthogonalLoop=1;strokeWidth=1;fontSize=20;labelBackgroundColor=none;fontColor=default;" edge="1" parent="WIyWlLk6GJQsqaUBKTNV-1" source="WX14FEPXoOFvyEs8KOCt-132">
          <mxGeometry relative="1" as="geometry">
            <mxPoint x="350" y="758" as="targetPoint" />
            <Array as="points">
              <mxPoint x="350" y="839" />
              <mxPoint x="350" y="798" />
            </Array>
          </mxGeometry>
        </mxCell>
        <mxCell id="WX14FEPXoOFvyEs8KOCt-181" style="edgeStyle=none;rounded=0;html=1;exitX=1;exitY=0.5;startArrow=none;startFill=0;endArrow=none;endFill=0;jettySize=auto;orthogonalLoop=1;strokeWidth=1;fontSize=20;labelBackgroundColor=none;fontColor=default;" edge="1" parent="WIyWlLk6GJQsqaUBKTNV-1" source="WX14FEPXoOFvyEs8KOCt-134">
          <mxGeometry relative="1" as="geometry">
            <mxPoint x="350" y="828" as="targetPoint" />
            <Array as="points">
              <mxPoint x="350" y="909" />
              <mxPoint x="350" y="878" />
            </Array>
          </mxGeometry>
        </mxCell>
        <mxCell id="WX14FEPXoOFvyEs8KOCt-182" value="" style="endArrow=none;html=1;shadow=0;strokeWidth=1;fontSize=15;fontColor=default;startArrow=diamondThin;startFill=1;endSize=14;startSize=14;entryX=0;entryY=0.5;exitX=1;exitY=0.5;labelBackgroundColor=none;" edge="1" parent="WIyWlLk6GJQsqaUBKTNV-1" source="WX14FEPXoOFvyEs8KOCt-171" target="WX14FEPXoOFvyEs8KOCt-2">
          <mxGeometry relative="1" as="geometry">
            <mxPoint x="370" y="518" as="sourcePoint" />
            <mxPoint x="1038" y="1250" as="targetPoint" />
          </mxGeometry>
        </mxCell>
        <mxCell id="WX14FEPXoOFvyEs8KOCt-183" value="" style="resizable=0;html=1;align=left;verticalAlign=bottom;labelBackgroundColor=none;fontSize=10;" vertex="1" connectable="0" parent="WX14FEPXoOFvyEs8KOCt-182">
          <mxGeometry x="-1" relative="1" as="geometry">
            <mxPoint x="-14" y="7" as="offset" />
          </mxGeometry>
        </mxCell>
        <mxCell id="WX14FEPXoOFvyEs8KOCt-184" value="" style="endArrow=none;html=1;shadow=0;strokeWidth=1;fontSize=15;fontColor=default;startArrow=diamondThin;startFill=1;endSize=14;startSize=14;entryX=0;entryY=0.5;exitX=1;exitY=0.5;labelBackgroundColor=none;" edge="1" parent="WIyWlLk6GJQsqaUBKTNV-1" source="WX14FEPXoOFvyEs8KOCt-8" target="WX14FEPXoOFvyEs8KOCt-100">
          <mxGeometry relative="1" as="geometry">
            <mxPoint x="420" y="483" as="sourcePoint" />
            <mxPoint x="330" y="457" as="targetPoint" />
          </mxGeometry>
        </mxCell>
        <mxCell id="WX14FEPXoOFvyEs8KOCt-185" value="" style="resizable=0;html=1;align=left;verticalAlign=bottom;labelBackgroundColor=none;fontSize=10;" vertex="1" connectable="0" parent="WX14FEPXoOFvyEs8KOCt-184">
          <mxGeometry x="-1" relative="1" as="geometry">
            <mxPoint x="-14" y="-15" as="offset" />
          </mxGeometry>
        </mxCell>
        <mxCell id="WX14FEPXoOFvyEs8KOCt-186" value="" style="endArrow=none;html=1;shadow=0;strokeWidth=1;fontSize=15;fontColor=default;startArrow=diamondThin;startFill=1;endSize=14;startSize=14;entryX=1;entryY=0.5;exitX=0;exitY=0.5;rounded=0;labelBackgroundColor=none;" edge="1" parent="WIyWlLk6GJQsqaUBKTNV-1" source="WX14FEPXoOFvyEs8KOCt-18" target="WX14FEPXoOFvyEs8KOCt-159">
          <mxGeometry relative="1" as="geometry">
            <mxPoint x="600" y="666" as="sourcePoint" />
            <mxPoint x="695" y="483" as="targetPoint" />
            <Array as="points">
              <mxPoint x="370" y="878" />
              <mxPoint x="370" y="1007" />
            </Array>
          </mxGeometry>
        </mxCell>
        <mxCell id="WX14FEPXoOFvyEs8KOCt-187" value="" style="resizable=0;html=1;align=left;verticalAlign=bottom;labelBackgroundColor=none;fontSize=10;" vertex="1" connectable="0" parent="WX14FEPXoOFvyEs8KOCt-186">
          <mxGeometry x="-1" relative="1" as="geometry">
            <mxPoint x="-14" y="-15" as="offset" />
          </mxGeometry>
        </mxCell>
        <mxCell id="WX14FEPXoOFvyEs8KOCt-188" style="edgeStyle=none;rounded=0;html=1;exitX=0;exitY=0.5;startArrow=none;startFill=0;endArrow=none;endFill=0;jettySize=auto;orthogonalLoop=1;strokeWidth=1;fontSize=20;labelBackgroundColor=none;fontColor=default;" edge="1" parent="WIyWlLk6GJQsqaUBKTNV-1" source="WX14FEPXoOFvyEs8KOCt-78">
          <mxGeometry relative="1" as="geometry">
            <mxPoint x="1148" y="1332" as="targetPoint" />
            <Array as="points">
              <mxPoint x="1148" y="1430" />
            </Array>
          </mxGeometry>
        </mxCell>
        <mxCell id="WX14FEPXoOFvyEs8KOCt-189" value="" style="endArrow=none;html=1;shadow=0;strokeWidth=1;fontSize=15;fontColor=default;startArrow=none;startFill=0;endSize=14;startSize=14;exitX=0.489;exitY=1.077;exitPerimeter=0;labelBackgroundColor=none;" edge="1" parent="WIyWlLk6GJQsqaUBKTNV-1" source="WX14FEPXoOFvyEs8KOCt-49">
          <mxGeometry relative="1" as="geometry">
            <mxPoint x="1036" y="1137" as="sourcePoint" />
            <mxPoint x="1036" y="1249" as="targetPoint" />
          </mxGeometry>
        </mxCell>
        <mxCell id="WX14FEPXoOFvyEs8KOCt-190" value="" style="resizable=0;html=1;align=left;verticalAlign=bottom;labelBackgroundColor=none;fontSize=10;" vertex="1" connectable="0" parent="WX14FEPXoOFvyEs8KOCt-189">
          <mxGeometry x="-1" relative="1" as="geometry">
            <mxPoint x="-14" y="-15" as="offset" />
          </mxGeometry>
        </mxCell>
        <mxCell id="WX14FEPXoOFvyEs8KOCt-191" value="" style="endArrow=none;html=1;shadow=0;strokeWidth=1;fontSize=15;fontColor=default;startArrow=none;startFill=0;endSize=14;startSize=14;entryX=0.75;entryY=0;exitX=0.275;exitY=1.094;exitPerimeter=0;labelBackgroundColor=none;" edge="1" parent="WIyWlLk6GJQsqaUBKTNV-1" source="WX14FEPXoOFvyEs8KOCt-53" target="WX14FEPXoOFvyEs8KOCt-54">
          <mxGeometry relative="1" as="geometry">
            <mxPoint x="1035" y="1144" as="sourcePoint" />
            <mxPoint x="1053" y="1228" as="targetPoint" />
          </mxGeometry>
        </mxCell>
        <mxCell id="WX14FEPXoOFvyEs8KOCt-192" value="" style="resizable=0;html=1;align=left;verticalAlign=bottom;labelBackgroundColor=none;fontSize=10;" vertex="1" connectable="0" parent="WX14FEPXoOFvyEs8KOCt-191">
          <mxGeometry x="-1" relative="1" as="geometry">
            <mxPoint x="-14" y="-15" as="offset" />
          </mxGeometry>
        </mxCell>
        <mxCell id="WX14FEPXoOFvyEs8KOCt-193" value="Extends" style="endArrow=block;endSize=16;endFill=0;html=1;shadow=0;strokeWidth=1;fontSize=12;fontColor=default;exitX=0;exitY=0.5;rounded=0;entryX=0;entryY=0.5;labelBackgroundColor=none;" edge="1" parent="WIyWlLk6GJQsqaUBKTNV-1" source="WX14FEPXoOFvyEs8KOCt-152" target="WX14FEPXoOFvyEs8KOCt-122">
          <mxGeometry width="160" relative="1" as="geometry">
            <mxPoint x="707" y="1439" as="sourcePoint" />
            <mxPoint x="1000" y="1326" as="targetPoint" />
            <Array as="points">
              <mxPoint x="680" y="1417" />
              <mxPoint x="680" y="1317" />
            </Array>
            <mxPoint as="offset" />
          </mxGeometry>
        </mxCell>
        <mxCell id="WX14FEPXoOFvyEs8KOCt-194" value="" style="endArrow=none;html=1;shadow=0;strokeWidth=1;fontSize=15;fontColor=default;startArrow=diamondThin;startFill=1;endSize=14;startSize=14;exitX=0;exitY=0.5;rounded=0;labelBackgroundColor=none;" edge="1" parent="WIyWlLk6GJQsqaUBKTNV-1" source="WX14FEPXoOFvyEs8KOCt-47">
          <mxGeometry relative="1" as="geometry">
            <mxPoint x="1049" y="1147" as="sourcePoint" />
            <mxPoint x="772" y="1278" as="targetPoint" />
            <Array as="points">
              <mxPoint x="772" y="1111" />
            </Array>
          </mxGeometry>
        </mxCell>
        <mxCell id="WX14FEPXoOFvyEs8KOCt-195" value="" style="resizable=0;html=1;align=left;verticalAlign=bottom;labelBackgroundColor=none;fontSize=10;" vertex="1" connectable="0" parent="WX14FEPXoOFvyEs8KOCt-194">
          <mxGeometry x="-1" relative="1" as="geometry">
            <mxPoint x="-14" y="-15" as="offset" />
          </mxGeometry>
        </mxCell>
        <mxCell id="WX14FEPXoOFvyEs8KOCt-196" style="edgeStyle=none;rounded=0;html=1;exitX=0;exitY=0.5;startArrow=none;startFill=0;endArrow=none;endFill=0;jettySize=auto;orthogonalLoop=1;strokeWidth=1;fontSize=20;labelBackgroundColor=none;fontColor=default;" edge="1" parent="WIyWlLk6GJQsqaUBKTNV-1" source="WX14FEPXoOFvyEs8KOCt-153">
          <mxGeometry relative="1" as="geometry">
            <mxPoint x="680" y="1418" as="targetPoint" />
            <Array as="points">
              <mxPoint x="680" y="1467" />
            </Array>
            <mxPoint x="707" y="1552" as="sourcePoint" />
          </mxGeometry>
        </mxCell>
        <mxCell id="WX14FEPXoOFvyEs8KOCt-197" style="edgeStyle=none;rounded=0;html=1;exitX=0;exitY=0.5;startArrow=none;startFill=0;endArrow=none;endFill=0;jettySize=auto;orthogonalLoop=1;strokeWidth=1;fontSize=20;labelBackgroundColor=none;fontColor=default;" edge="1" parent="WIyWlLk6GJQsqaUBKTNV-1" source="WX14FEPXoOFvyEs8KOCt-154">
          <mxGeometry relative="1" as="geometry">
            <mxPoint x="680" y="1458" as="targetPoint" />
            <Array as="points">
              <mxPoint x="680" y="1516" />
            </Array>
            <mxPoint x="707" y="1674" as="sourcePoint" />
          </mxGeometry>
        </mxCell>
        <mxCell id="WX14FEPXoOFvyEs8KOCt-198" style="edgeStyle=none;rounded=0;html=1;startArrow=none;startFill=0;endArrow=none;endFill=0;jettySize=auto;orthogonalLoop=1;strokeWidth=1;fontSize=20;labelBackgroundColor=none;fontColor=default;" edge="1" parent="WIyWlLk6GJQsqaUBKTNV-1">
          <mxGeometry relative="1" as="geometry">
            <mxPoint x="360" y="766" as="targetPoint" />
            <mxPoint x="333" y="766" as="sourcePoint" />
          </mxGeometry>
        </mxCell>
        <mxCell id="WX14FEPXoOFvyEs8KOCt-199" value="*" style="text;html=1;resizable=0;points=[];autosize=1;align=left;verticalAlign=top;spacingTop=-4;fontSize=20;labelBackgroundColor=none;" vertex="1" parent="WIyWlLk6GJQsqaUBKTNV-1">
          <mxGeometry x="345.5" y="1011" width="20" height="20" as="geometry" />
        </mxCell>
        <mxCell id="WX14FEPXoOFvyEs8KOCt-200" value="*" style="text;html=1;resizable=0;points=[];autosize=1;align=left;verticalAlign=top;spacingTop=-4;fontSize=20;labelBackgroundColor=none;" vertex="1" parent="WIyWlLk6GJQsqaUBKTNV-1">
          <mxGeometry x="396.5" y="447" width="20" height="20" as="geometry" />
        </mxCell>
        <mxCell id="WX14FEPXoOFvyEs8KOCt-201" value="*" style="text;html=1;resizable=0;points=[];autosize=1;align=left;verticalAlign=top;spacingTop=-4;fontSize=20;labelBackgroundColor=none;" vertex="1" parent="WIyWlLk6GJQsqaUBKTNV-1">
          <mxGeometry x="1264.5" y="959" width="20" height="20" as="geometry" />
        </mxCell>
        <mxCell id="WX14FEPXoOFvyEs8KOCt-202" value="*" style="text;html=1;resizable=0;points=[];autosize=1;align=left;verticalAlign=top;spacingTop=-4;fontSize=20;labelBackgroundColor=none;" vertex="1" parent="WIyWlLk6GJQsqaUBKTNV-1">
          <mxGeometry x="1162" y="800" width="20" height="20" as="geometry" />
        </mxCell>
        <mxCell id="WX14FEPXoOFvyEs8KOCt-203" value="*" style="text;html=1;resizable=0;points=[];autosize=1;align=left;verticalAlign=top;spacingTop=-4;fontSize=20;labelBackgroundColor=none;" vertex="1" parent="WIyWlLk6GJQsqaUBKTNV-1">
          <mxGeometry x="1018.5" y="1228" width="20" height="20" as="geometry" />
        </mxCell>
        <mxCell id="WX14FEPXoOFvyEs8KOCt-204" value="1" style="text;html=1;resizable=0;points=[];autosize=1;align=left;verticalAlign=top;spacingTop=-4;fontSize=13;labelBackgroundColor=none;" vertex="1" parent="WIyWlLk6GJQsqaUBKTNV-1">
          <mxGeometry x="840" y="772" width="30" height="30" as="geometry" />
        </mxCell>
        <mxCell id="WX14FEPXoOFvyEs8KOCt-205" value="1" style="text;html=1;resizable=0;points=[];autosize=1;align=left;verticalAlign=top;spacingTop=-4;fontSize=13;labelBackgroundColor=none;" vertex="1" parent="WIyWlLk6GJQsqaUBKTNV-1">
          <mxGeometry x="670" y="457" width="30" height="30" as="geometry" />
        </mxCell>
        <mxCell id="WX14FEPXoOFvyEs8KOCt-206" value="1" style="text;html=1;resizable=0;points=[];autosize=1;align=left;verticalAlign=top;spacingTop=-4;fontSize=13;labelBackgroundColor=none;" vertex="1" parent="WIyWlLk6GJQsqaUBKTNV-1">
          <mxGeometry x="592" y="599" width="30" height="30" as="geometry" />
        </mxCell>
        <mxCell id="WX14FEPXoOFvyEs8KOCt-207" value="1" style="text;html=1;resizable=0;points=[];autosize=1;align=left;verticalAlign=top;spacingTop=-4;fontSize=13;labelBackgroundColor=none;" vertex="1" parent="WIyWlLk6GJQsqaUBKTNV-1">
          <mxGeometry x="594" y="821" width="30" height="30" as="geometry" />
        </mxCell>
        <mxCell id="WX14FEPXoOFvyEs8KOCt-208" value="1" style="text;html=1;resizable=0;points=[];autosize=1;align=left;verticalAlign=top;spacingTop=-4;fontSize=13;labelBackgroundColor=none;" vertex="1" parent="WIyWlLk6GJQsqaUBKTNV-1">
          <mxGeometry x="1059" y="1225" width="30" height="30" as="geometry" />
        </mxCell>
        <mxCell id="WX14FEPXoOFvyEs8KOCt-209" value="1" style="text;html=1;resizable=0;points=[];autosize=1;align=left;verticalAlign=top;spacingTop=-4;fontSize=13;labelBackgroundColor=none;" vertex="1" parent="WIyWlLk6GJQsqaUBKTNV-1">
          <mxGeometry x="1245" y="979" width="30" height="30" as="geometry" />
        </mxCell>
        <mxCell id="WX14FEPXoOFvyEs8KOCt-210" value="1" style="text;html=1;resizable=0;points=[];autosize=1;align=left;verticalAlign=top;spacingTop=-4;fontSize=13;labelBackgroundColor=none;" vertex="1" parent="WIyWlLk6GJQsqaUBKTNV-1">
          <mxGeometry x="1074" y="890" width="30" height="30" as="geometry" />
        </mxCell>
        <mxCell id="WX14FEPXoOFvyEs8KOCt-211" value="1" style="text;html=1;resizable=0;points=[];autosize=1;align=left;verticalAlign=top;spacingTop=-4;fontSize=13;labelBackgroundColor=none;" vertex="1" parent="WIyWlLk6GJQsqaUBKTNV-1">
          <mxGeometry x="1013.5" y="1162" width="30" height="30" as="geometry" />
        </mxCell>
        <mxCell id="WX14FEPXoOFvyEs8KOCt-212" value="1" style="text;html=1;resizable=0;points=[];autosize=1;align=left;verticalAlign=top;spacingTop=-4;fontSize=13;labelBackgroundColor=none;" vertex="1" parent="WIyWlLk6GJQsqaUBKTNV-1">
          <mxGeometry x="1190" y="1094" width="30" height="30" as="geometry" />
        </mxCell>
        <mxCell id="WX14FEPXoOFvyEs8KOCt-213" value="1" style="text;html=1;resizable=0;points=[];autosize=1;align=left;verticalAlign=top;spacingTop=-4;fontSize=13;labelBackgroundColor=none;" vertex="1" parent="WIyWlLk6GJQsqaUBKTNV-1">
          <mxGeometry x="1165" y="1012" width="30" height="30" as="geometry" />
        </mxCell>
        <mxCell id="WX14FEPXoOFvyEs8KOCt-214" value="1" style="text;html=1;resizable=0;points=[];autosize=1;align=left;verticalAlign=top;spacingTop=-4;fontSize=13;labelBackgroundColor=none;" vertex="1" parent="WIyWlLk6GJQsqaUBKTNV-1">
          <mxGeometry x="1131" y="961" width="30" height="30" as="geometry" />
        </mxCell>
        <mxCell id="WX14FEPXoOFvyEs8KOCt-215" value="1" style="text;html=1;resizable=0;points=[];autosize=1;align=left;verticalAlign=top;spacingTop=-4;fontSize=13;labelBackgroundColor=none;" vertex="1" parent="WIyWlLk6GJQsqaUBKTNV-1">
          <mxGeometry x="1268" y="1150" width="30" height="30" as="geometry" />
        </mxCell>
        <mxCell id="WX14FEPXoOFvyEs8KOCt-216" value="1" style="text;html=1;resizable=0;points=[];autosize=1;align=left;verticalAlign=top;spacingTop=-4;fontSize=13;labelBackgroundColor=none;" vertex="1" parent="WIyWlLk6GJQsqaUBKTNV-1">
          <mxGeometry x="1268" y="1097" width="30" height="30" as="geometry" />
        </mxCell>
        <mxCell id="WX14FEPXoOFvyEs8KOCt-217" value="*" style="text;html=1;resizable=0;points=[];autosize=1;align=left;verticalAlign=top;spacingTop=-4;fontSize=20;labelBackgroundColor=none;" vertex="1" parent="WIyWlLk6GJQsqaUBKTNV-1">
          <mxGeometry x="484" y="548" width="20" height="20" as="geometry" />
        </mxCell>
        <mxCell id="WX14FEPXoOFvyEs8KOCt-218" value="*" style="text;html=1;resizable=0;points=[];autosize=1;align=left;verticalAlign=top;spacingTop=-4;fontSize=20;labelBackgroundColor=none;" vertex="1" parent="WIyWlLk6GJQsqaUBKTNV-1">
          <mxGeometry x="926" y="985" width="20" height="20" as="geometry" />
        </mxCell>
        <mxCell id="WX14FEPXoOFvyEs8KOCt-219" value="*" style="text;html=1;resizable=0;points=[];autosize=1;align=left;verticalAlign=top;spacingTop=-4;fontSize=20;labelBackgroundColor=none;" vertex="1" parent="WIyWlLk6GJQsqaUBKTNV-1">
          <mxGeometry x="1016" y="894" width="20" height="20" as="geometry" />
        </mxCell>
        <mxCell id="WX14FEPXoOFvyEs8KOCt-220" value="0..1" style="text;html=1;resizable=0;points=[];autosize=1;align=left;verticalAlign=top;spacingTop=-4;fontSize=13;labelBackgroundColor=none;" vertex="1" parent="WIyWlLk6GJQsqaUBKTNV-1">
          <mxGeometry x="503.5" y="921" width="40" height="20" as="geometry" />
        </mxCell>
        <mxCell id="WX14FEPXoOFvyEs8KOCt-221" value="0..1" style="text;html=1;resizable=0;points=[];autosize=1;align=left;verticalAlign=top;spacingTop=-4;fontSize=13;labelBackgroundColor=none;" vertex="1" parent="WIyWlLk6GJQsqaUBKTNV-1">
          <mxGeometry x="507" y="972" width="40" height="20" as="geometry" />
        </mxCell>
        <mxCell id="WX14FEPXoOFvyEs8KOCt-222" value="1" style="text;html=1;resizable=0;points=[];autosize=1;align=left;verticalAlign=top;spacingTop=-4;fontSize=13;labelBackgroundColor=none;" vertex="1" parent="WIyWlLk6GJQsqaUBKTNV-1">
          <mxGeometry x="393.5" y="882" width="30" height="30" as="geometry" />
        </mxCell>
        <mxCell id="WX14FEPXoOFvyEs8KOCt-223" value="1" style="text;html=1;resizable=0;points=[];autosize=1;align=left;verticalAlign=top;spacingTop=-4;fontSize=13;labelBackgroundColor=none;" vertex="1" parent="WIyWlLk6GJQsqaUBKTNV-1">
          <mxGeometry x="335.5" y="424" width="30" height="30" as="geometry" />
        </mxCell>
        <mxCell id="WX14FEPXoOFvyEs8KOCt-224" value="1" style="text;html=1;resizable=0;points=[];autosize=1;align=left;verticalAlign=top;spacingTop=-4;fontSize=13;labelBackgroundColor=none;" vertex="1" parent="WIyWlLk6GJQsqaUBKTNV-1">
          <mxGeometry x="509" y="520" width="30" height="30" as="geometry" />
        </mxCell>
        <mxCell id="WX14FEPXoOFvyEs8KOCt-225" value="*" style="text;html=1;resizable=0;points=[];autosize=1;align=left;verticalAlign=top;spacingTop=-4;fontSize=20;labelBackgroundColor=none;" vertex="1" parent="WIyWlLk6GJQsqaUBKTNV-1">
          <mxGeometry x="752" y="1211" width="20" height="20" as="geometry" />
        </mxCell>
        <mxCell id="WX14FEPXoOFvyEs8KOCt-226" value="1" style="text;html=1;resizable=0;points=[];autosize=1;align=left;verticalAlign=top;spacingTop=-4;fontSize=13;labelBackgroundColor=none;" vertex="1" parent="WIyWlLk6GJQsqaUBKTNV-1">
          <mxGeometry x="926.5" y="1080" width="30" height="30" as="geometry" />
        </mxCell>
        <mxCell id="WX14FEPXoOFvyEs8KOCt-227" value="&lt;p style=&quot;margin: 4px 0px 0px ; text-align: center&quot;&gt;&amp;lt;&amp;lt;dataType&amp;gt;&amp;gt;&lt;/p&gt;&lt;p style=&quot;margin: 0px ; margin-top: 4px ; text-align: center ; text-decoration: underline&quot;&gt;&lt;b&gt;User&lt;/b&gt;&lt;/p&gt;&lt;hr&gt;&lt;p style=&quot;margin: 0px ; margin-left: 8px&quot;&gt;first name: string&lt;br&gt;&lt;/p&gt;&lt;p style=&quot;margin: 0px ; margin-left: 8px&quot;&gt;last name: string&lt;br&gt;&lt;/p&gt;&lt;p style=&quot;margin: 0px ; margin-left: 8px&quot;&gt;address: Address&lt;br&gt;&lt;/p&gt;&lt;p style=&quot;margin: 0px ; margin-left: 8px&quot;&gt;email: string&lt;br&gt;&lt;/p&gt;&lt;p style=&quot;margin: 0px ; margin-left: 8px&quot;&gt;&lt;span&gt;phone: string&lt;/span&gt;&lt;br&gt;&lt;/p&gt;&lt;p style=&quot;margin: 0px ; margin-left: 8px&quot;&gt;&lt;span&gt;&lt;br&gt;&lt;/span&gt;&lt;/p&gt;" style="verticalAlign=top;align=left;overflow=fill;fontSize=12;fontFamily=Helvetica;html=1;rounded=0;shadow=1;glass=0;comic=0;strokeWidth=1;labelBackgroundColor=none;" vertex="1" parent="WIyWlLk6GJQsqaUBKTNV-1">
          <mxGeometry x="1205" y="180" width="118" height="139" as="geometry" />
        </mxCell>
        <mxCell id="WX14FEPXoOFvyEs8KOCt-228" value="Extends" style="endArrow=block;endSize=16;endFill=0;html=1;shadow=0;strokeWidth=1;fontSize=12;fontColor=default;exitX=0;exitY=0.5;rounded=0;entryX=0;entryY=0.5;labelBackgroundColor=none;" edge="1" parent="WIyWlLk6GJQsqaUBKTNV-1">
          <mxGeometry width="160" relative="1" as="geometry">
            <mxPoint x="471.5" y="1420.5" as="sourcePoint" />
            <mxPoint x="471.5" y="1320.5" as="targetPoint" />
            <Array as="points">
              <mxPoint x="444.5" y="1420.5" />
              <mxPoint x="444.5" y="1320.5" />
            </Array>
            <mxPoint as="offset" />
          </mxGeometry>
        </mxCell>
        <mxCell id="WX14FEPXoOFvyEs8KOCt-229" style="edgeStyle=none;rounded=0;html=1;exitX=0;exitY=0.5;startArrow=none;startFill=0;endArrow=none;endFill=0;jettySize=auto;orthogonalLoop=1;strokeWidth=1;fontSize=20;labelBackgroundColor=none;fontColor=default;" edge="1" parent="WIyWlLk6GJQsqaUBKTNV-1">
          <mxGeometry relative="1" as="geometry">
            <mxPoint x="444.5" y="1421.5" as="targetPoint" />
            <Array as="points">
              <mxPoint x="444.5" y="1470.5" />
            </Array>
            <mxPoint x="469.5" y="1470.5" as="sourcePoint" />
          </mxGeometry>
        </mxCell>
        <mxCell id="WX14FEPXoOFvyEs8KOCt-230" style="edgeStyle=none;rounded=0;html=1;exitX=0;exitY=0.5;startArrow=none;startFill=0;endArrow=none;endFill=0;jettySize=auto;orthogonalLoop=1;strokeWidth=1;fontSize=20;labelBackgroundColor=none;fontColor=default;" edge="1" parent="WIyWlLk6GJQsqaUBKTNV-1">
          <mxGeometry relative="1" as="geometry">
            <mxPoint x="444.5" y="1461.5" as="targetPoint" />
            <Array as="points">
              <mxPoint x="444.5" y="1519.5" />
            </Array>
            <mxPoint x="469.5" y="1519.5" as="sourcePoint" />
          </mxGeometry>
        </mxCell>
        <mxCell id="WX14FEPXoOFvyEs8KOCt-231" value="Extends" style="endArrow=block;endSize=16;endFill=0;html=1;shadow=0;strokeWidth=1;fontSize=12;fontColor=default;exitX=0;exitY=0.5;rounded=0;entryX=0;entryY=0.5;labelBackgroundColor=none;" edge="1" parent="WIyWlLk6GJQsqaUBKTNV-1">
          <mxGeometry width="160" relative="1" as="geometry">
            <mxPoint x="250" y="1419" as="sourcePoint" />
            <mxPoint x="250" y="1319" as="targetPoint" />
            <Array as="points">
              <mxPoint x="223" y="1419" />
              <mxPoint x="223" y="1319" />
            </Array>
            <mxPoint as="offset" />
          </mxGeometry>
        </mxCell>
        <mxCell id="WX14FEPXoOFvyEs8KOCt-232" style="edgeStyle=none;rounded=0;html=1;exitX=0;exitY=0.5;startArrow=none;startFill=0;endArrow=none;endFill=0;jettySize=auto;orthogonalLoop=1;strokeWidth=1;fontSize=20;labelBackgroundColor=none;fontColor=default;" edge="1" parent="WIyWlLk6GJQsqaUBKTNV-1">
          <mxGeometry relative="1" as="geometry">
            <mxPoint x="223" y="1420" as="targetPoint" />
            <Array as="points">
              <mxPoint x="223" y="1469" />
            </Array>
            <mxPoint x="248" y="1469" as="sourcePoint" />
          </mxGeometry>
        </mxCell>
        <mxCell id="WX14FEPXoOFvyEs8KOCt-233" style="edgeStyle=none;rounded=0;html=1;exitX=0;exitY=0.5;startArrow=none;startFill=0;endArrow=none;endFill=0;jettySize=auto;orthogonalLoop=1;strokeWidth=1;fontSize=20;labelBackgroundColor=none;fontColor=default;" edge="1" parent="WIyWlLk6GJQsqaUBKTNV-1">
          <mxGeometry relative="1" as="geometry">
            <mxPoint x="223" y="1460" as="targetPoint" />
            <Array as="points">
              <mxPoint x="223" y="1518" />
            </Array>
            <mxPoint x="248" y="1518" as="sourcePoint" />
          </mxGeometry>
        </mxCell>
        <mxCell id="WX14FEPXoOFvyEs8KOCt-234" value="&lt;p style=&quot;margin: 4px 0px 0px ; text-align: center&quot;&gt;&amp;lt;&amp;lt;&lt;span&gt;enumeration&lt;/span&gt;&amp;gt;&amp;gt;&lt;/p&gt;&lt;p style=&quot;margin: 0px ; margin-top: 4px ; text-align: center ; text-decoration: underline&quot;&gt;&lt;b&gt;PaymentStatus&lt;/b&gt;&lt;/p&gt;&lt;hr&gt;&lt;p style=&quot;margin: 0px ; margin-left: 8px&quot;&gt;&lt;span&gt;Unpaid&lt;/span&gt;&lt;/p&gt;&lt;p style=&quot;margin: 0px ; margin-left: 8px&quot;&gt;&lt;span&gt;Pending&lt;/span&gt;&lt;/p&gt;&lt;p style=&quot;margin: 0px ; margin-left: 8px&quot;&gt;&lt;span&gt;Completed&lt;br&gt;&lt;/span&gt;&lt;/p&gt;&lt;p style=&quot;margin: 0px ; margin-left: 8px&quot;&gt;&lt;span&gt;Failed&lt;/span&gt;&lt;/p&gt;&lt;p style=&quot;margin: 0px ; margin-left: 8px&quot;&gt;&lt;span&gt;&lt;span&gt;Cancelled&lt;/span&gt;&lt;/span&gt;&lt;/p&gt;&lt;p style=&quot;margin: 0px ; margin-left: 8px&quot;&gt;&lt;span&gt;Abandoned&lt;/span&gt;&lt;/p&gt;&lt;p style=&quot;margin: 0px ; margin-left: 8px&quot;&gt;&lt;span&gt;Settled&lt;/span&gt;&lt;/p&gt;&lt;p style=&quot;margin: 0px ; margin-left: 8px&quot;&gt;&lt;span&gt;Refunded&lt;br&gt;&lt;/span&gt;&lt;/p&gt;" style="verticalAlign=top;align=left;overflow=fill;fontSize=12;fontFamily=Helvetica;html=1;rounded=0;shadow=1;glass=0;comic=0;strokeWidth=1;labelBackgroundColor=none;" vertex="1" parent="WIyWlLk6GJQsqaUBKTNV-1">
          <mxGeometry x="1330" y="180" width="108" height="200" as="geometry" />
        </mxCell>
        <mxCell id="WX14FEPXoOFvyEs8KOCt-235" value="&lt;p style=&quot;font-size: 12px&quot; align=&quot;center&quot;&gt;&lt;font style=&quot;font-size: 12px&quot;&gt;&amp;lt;&amp;lt;interface&amp;gt;&amp;gt;&lt;/font&gt;&lt;b style=&quot;font-size: 12px&quot;&gt;&lt;font style=&quot;font-size: 12px&quot;&gt;&lt;u style=&quot;font-size: 12px&quot;&gt;&lt;br&gt;Search&lt;/u&gt;&lt;/font&gt;&lt;/b&gt;&lt;br&gt;&lt;font style=&quot;font-size: 12px&quot;&gt;searchByType(string)&lt;/font&gt;&lt;br&gt;&lt;font&gt;searchByModel(string)&lt;/font&gt;&lt;/p&gt;" style="rounded=0;whiteSpace=wrap;html=1;labelBackgroundColor=none;strokeWidth=1;fontSize=12;align=center;spacingTop=5;spacing=0;shadow=1;" vertex="1" parent="WIyWlLk6GJQsqaUBKTNV-1">
          <mxGeometry x="685" y="942" width="180" height="76" as="geometry" />
        </mxCell>
      </root>
    </mxGraphModel>
  </diagram>
</mxfile>
